<svg xmlns="http://www.w3.org/2000/svg" xmlns:xlink="http://www.w3.org/1999/xlink" width="1680" zoomAndPan="magnify" viewBox="0 0 1260 344.999992" height="460" preserveAspectRatio="xMidYMid meet" version="1.0"><defs><g/><clipPath id="ab2034e545"><path d="M 81 140 L 254.933594 140 L 254.933594 241 L 81 241 Z M 81 140 " clip-rule="nonzero"/></clipPath></defs><path fill="#000000" d="M 125.6875 109.804688 C 124.863281 114.226562 125.394531 119.179688 125.453125 123.71875 C 125.511719 128.492188 125.6875 133.148438 126.101562 137.863281 C 126.511719 142.402344 134.230469 143.050781 135.175781 138.511719 C 136.292969 133.382812 136.824219 128.609375 136.707031 123.421875 C 136.53125 118.351562 136.351562 112.871094 134.410156 108.152344 C 133.644531 106.328125 131.285156 105.324219 129.460938 105.679688 C 127.28125 106.089844 126.101562 107.800781 125.6875 109.804688 Z M 125.6875 109.804688 " fill-opacity="1" fill-rule="nonzero"/><path fill="#000000" d="M 189.734375 108.273438 C 187.96875 111.808594 188.675781 117.054688 188.851562 120.945312 C 189.027344 125.484375 189.558594 129.671875 190.738281 134.03125 C 192.328125 139.988281 199.871094 139.101562 201.050781 133.445312 C 202.050781 128.726562 202.109375 124.425781 201.578125 119.648438 C 201.109375 115.347656 200.695312 110.21875 197.925781 106.679688 C 195.453125 103.554688 191.210938 105.265625 189.734375 108.273438 Z M 189.734375 108.273438 " fill-opacity="1" fill-rule="nonzero"/><g clip-path="url(#ab2034e545)"><path fill="#000000" d="M 81.261719 183.078125 C 81.085938 191.980469 85.5625 200.351562 90.511719 207.484375 C 95.402344 214.5 101.648438 220.628906 108.660156 225.523438 C 122.035156 234.835938 138.414062 240.140625 154.679688 240.847656 C 171.175781 241.554688 188.085938 238.136719 202.582031 230.121094 C 217.015625 222.160156 229.214844 210.429688 238.109375 196.519531 C 243 188.855469 246.949219 180.484375 249.71875 171.820312 C 251.191406 167.339844 252.371094 162.683594 253.136719 158.023438 C 253.84375 153.425781 254.785156 148.179688 253.3125 143.699219 C 251.898438 139.457031 246.714844 138.867188 244.710938 143.050781 C 243.117188 146.414062 242.941406 150.125 242.175781 153.78125 C 241.410156 157.375 240.585938 160.972656 239.523438 164.507812 C 237.519531 171.289062 234.8125 177.890625 231.335938 184.023438 C 224.324219 196.460938 214.660156 207.601562 202.640625 215.5 C 178.835938 231.0625 146.664062 233.183594 121.210938 220.097656 C 113.785156 216.265625 106.894531 211.136719 101.234375 205.066406 C 94.8125 198.167969 91.160156 190.152344 86.742188 181.957031 C 85.445312 179.660156 81.320312 180.070312 81.261719 183.078125 Z M 81.261719 183.078125 " fill-opacity="1" fill-rule="nonzero"/></g><g fill="#ff00ff" fill-opacity="1"><g transform="translate(308.247621, 246.720533)"><g><path d="M 51 0 L 21 0 C 18.46875 0 16.632812 -0.566406 15.5 -1.703125 C 14.363281 -2.835938 13.796875 -4.671875 13.796875 -7.203125 L 13.796875 -136.796875 C 13.796875 -139.328125 14.363281 -141.160156 15.5 -142.296875 C 16.632812 -143.429688 18.46875 -144 21 -144 L 41.796875 -144 C 44.328125 -144 46.492188 -143.597656 48.296875 -142.796875 C 50.097656 -141.992188 51.863281 -140.59375 53.59375 -138.59375 L 92.40625 -94.203125 L 92.40625 -136.796875 C 92.40625 -139.328125 92.96875 -141.160156 94.09375 -142.296875 C 95.226562 -143.429688 97.0625 -144 99.59375 -144 L 129.59375 -144 C 132.132812 -144 133.96875 -143.429688 135.09375 -142.296875 C 136.226562 -141.160156 136.796875 -139.328125 136.796875 -136.796875 L 136.796875 -7.203125 C 136.796875 -4.671875 136.226562 -2.835938 135.09375 -1.703125 C 133.96875 -0.566406 132.132812 0 129.59375 0 L 99.59375 0 C 97.0625 0 95.226562 -0.566406 94.09375 -1.703125 C 92.96875 -2.835938 92.40625 -4.671875 92.40625 -7.203125 L 92.40625 -31.796875 L 58.203125 -73.203125 L 58.203125 -7.203125 C 58.203125 -4.671875 57.632812 -2.835938 56.5 -1.703125 C 55.363281 -0.566406 53.53125 0 51 0 Z M 51 0 "/></g></g></g><g fill="#ff00ff" fill-opacity="1"><g transform="translate(458.843621, 246.720533)"><g><path d="M 66 -102 L 56.59375 -71.59375 L 88 -71.59375 L 78.59375 -102 C 78.0625 -103.195312 77.492188 -104.0625 76.890625 -104.59375 C 76.296875 -105.132812 75.597656 -105.40625 74.796875 -105.40625 L 69.796875 -105.40625 C 68.992188 -105.40625 68.289062 -105.132812 67.6875 -104.59375 C 67.09375 -104.0625 66.53125 -103.195312 66 -102 Z M 54.59375 -7.203125 C 54.59375 -4.671875 54.023438 -2.835938 52.890625 -1.703125 C 51.765625 -0.566406 49.9375 0 47.40625 0 L 18 0 C 15.46875 0 13.632812 -0.566406 12.5 -1.703125 C 11.363281 -2.835938 10.796875 -4.671875 10.796875 -7.203125 L 10.796875 -60 C 10.796875 -64 11.425781 -68.597656 12.6875 -73.796875 C 13.957031 -78.992188 15.925781 -85.0625 18.59375 -92 L 36 -137.40625 C 36.800781 -139.664062 38.035156 -141.328125 39.703125 -142.390625 C 41.367188 -143.460938 43.535156 -144 46.203125 -144 L 100 -144 C 102.53125 -144 104.628906 -143.460938 106.296875 -142.390625 C 107.960938 -141.328125 109.195312 -139.664062 110 -137.40625 L 127.40625 -92 C 130.070312 -85.0625 132.035156 -78.992188 133.296875 -73.796875 C 134.566406 -68.597656 135.203125 -64 135.203125 -60 L 135.203125 -7.203125 C 135.203125 -4.671875 134.632812 -2.835938 133.5 -1.703125 C 132.363281 -0.566406 130.53125 0 128 0 L 97.796875 0 C 95.128906 0 93.160156 -0.566406 91.890625 -1.703125 C 90.628906 -2.835938 90 -4.671875 90 -7.203125 L 90 -35.203125 L 54.59375 -35.203125 Z M 54.59375 -7.203125 "/></g></g></g><g fill="#ff00ff" fill-opacity="1"><g transform="translate(604.839737, 246.720533)"><g><path d="M 52 0 L 21 0 C 18.46875 0 16.632812 -0.566406 15.5 -1.703125 C 14.363281 -2.835938 13.796875 -4.671875 13.796875 -7.203125 L 13.796875 -136.796875 C 13.796875 -139.328125 14.363281 -141.160156 15.5 -142.296875 C 16.632812 -143.429688 18.46875 -144 21 -144 L 110.203125 -144 C 112.734375 -144 114.566406 -143.429688 115.703125 -142.296875 C 116.835938 -141.160156 117.40625 -139.328125 117.40625 -136.796875 L 117.40625 -113 C 117.40625 -110.46875 116.835938 -108.632812 115.703125 -107.5 C 114.566406 -106.363281 112.734375 -105.796875 110.203125 -105.796875 L 59.203125 -105.796875 L 59.203125 -85 L 94 -85 C 96.53125 -85 98.363281 -84.429688 99.5 -83.296875 C 100.632812 -82.160156 101.203125 -80.328125 101.203125 -77.796875 L 101.203125 -53.796875 C 101.203125 -51.265625 100.632812 -49.429688 99.5 -48.296875 C 98.363281 -47.160156 96.53125 -46.59375 94 -46.59375 L 59.203125 -46.59375 L 59.203125 -7.203125 C 59.203125 -4.671875 58.632812 -2.835938 57.5 -1.703125 C 56.363281 -0.566406 54.53125 0 52 0 Z M 52 0 "/></g></g></g><g fill="#00ffff" fill-opacity="1"><g transform="translate(303.527719, 240.891934)"><g><path d="M 51 0 L 21 0 C 18.46875 0 16.632812 -0.566406 15.5 -1.703125 C 14.363281 -2.835938 13.796875 -4.671875 13.796875 -7.203125 L 13.796875 -136.796875 C 13.796875 -139.328125 14.363281 -141.160156 15.5 -142.296875 C 16.632812 -143.429688 18.46875 -144 21 -144 L 41.796875 -144 C 44.328125 -144 46.492188 -143.597656 48.296875 -142.796875 C 50.097656 -141.992188 51.863281 -140.59375 53.59375 -138.59375 L 92.40625 -94.203125 L 92.40625 -136.796875 C 92.40625 -139.328125 92.96875 -141.160156 94.09375 -142.296875 C 95.226562 -143.429688 97.0625 -144 99.59375 -144 L 129.59375 -144 C 132.132812 -144 133.96875 -143.429688 135.09375 -142.296875 C 136.226562 -141.160156 136.796875 -139.328125 136.796875 -136.796875 L 136.796875 -7.203125 C 136.796875 -4.671875 136.226562 -2.835938 135.09375 -1.703125 C 133.96875 -0.566406 132.132812 0 129.59375 0 L 99.59375 0 C 97.0625 0 95.226562 -0.566406 94.09375 -1.703125 C 92.96875 -2.835938 92.40625 -4.671875 92.40625 -7.203125 L 92.40625 -31.796875 L 58.203125 -73.203125 L 58.203125 -7.203125 C 58.203125 -4.671875 57.632812 -2.835938 56.5 -1.703125 C 55.363281 -0.566406 53.53125 0 51 0 Z M 51 0 "/></g></g></g><g fill="#00ffff" fill-opacity="1"><g transform="translate(454.123719, 240.891934)"><g><path d="M 66 -102 L 56.59375 -71.59375 L 88 -71.59375 L 78.59375 -102 C 78.0625 -103.195312 77.492188 -104.0625 76.890625 -104.59375 C 76.296875 -105.132812 75.597656 -105.40625 74.796875 -105.40625 L 69.796875 -105.40625 C 68.992188 -105.40625 68.289062 -105.132812 67.6875 -104.59375 C 67.09375 -104.0625 66.53125 -103.195312 66 -102 Z M 54.59375 -7.203125 C 54.59375 -4.671875 54.023438 -2.835938 52.890625 -1.703125 C 51.765625 -0.566406 49.9375 0 47.40625 0 L 18 0 C 15.46875 0 13.632812 -0.566406 12.5 -1.703125 C 11.363281 -2.835938 10.796875 -4.671875 10.796875 -7.203125 L 10.796875 -60 C 10.796875 -64 11.425781 -68.597656 12.6875 -73.796875 C 13.957031 -78.992188 15.925781 -85.0625 18.59375 -92 L 36 -137.40625 C 36.800781 -139.664062 38.035156 -141.328125 39.703125 -142.390625 C 41.367188 -143.460938 43.535156 -144 46.203125 -144 L 100 -144 C 102.53125 -144 104.628906 -143.460938 106.296875 -142.390625 C 107.960938 -141.328125 109.195312 -139.664062 110 -137.40625 L 127.40625 -92 C 130.070312 -85.0625 132.035156 -78.992188 133.296875 -73.796875 C 134.566406 -68.597656 135.203125 -64 135.203125 -60 L 135.203125 -7.203125 C 135.203125 -4.671875 134.632812 -2.835938 133.5 -1.703125 C 132.363281 -0.566406 130.53125 0 128 0 L 97.796875 0 C 95.128906 0 93.160156 -0.566406 91.890625 -1.703125 C 90.628906 -2.835938 90 -4.671875 90 -7.203125 L 90 -35.203125 L 54.59375 -35.203125 Z M 54.59375 -7.203125 "/></g></g></g><g fill="#00ffff" fill-opacity="1"><g transform="translate(600.119835, 240.891934)"><g><path d="M 52 0 L 21 0 C 18.46875 0 16.632812 -0.566406 15.5 -1.703125 C 14.363281 -2.835938 13.796875 -4.671875 13.796875 -7.203125 L 13.796875 -136.796875 C 13.796875 -139.328125 14.363281 -141.160156 15.5 -142.296875 C 16.632812 -143.429688 18.46875 -144 21 -144 L 110.203125 -144 C 112.734375 -144 114.566406 -143.429688 115.703125 -142.296875 C 116.835938 -141.160156 117.40625 -139.328125 117.40625 -136.796875 L 117.40625 -113 C 117.40625 -110.46875 116.835938 -108.632812 115.703125 -107.5 C 114.566406 -106.363281 112.734375 -105.796875 110.203125 -105.796875 L 59.203125 -105.796875 L 59.203125 -85 L 94 -85 C 96.53125 -85 98.363281 -84.429688 99.5 -83.296875 C 100.632812 -82.160156 101.203125 -80.328125 101.203125 -77.796875 L 101.203125 -53.796875 C 101.203125 -51.265625 100.632812 -49.429688 99.5 -48.296875 C 98.363281 -47.160156 96.53125 -46.59375 94 -46.59375 L 59.203125 -46.59375 L 59.203125 -7.203125 C 59.203125 -4.671875 58.632812 -2.835938 57.5 -1.703125 C 56.363281 -0.566406 54.53125 0 52 0 Z M 52 0 "/></g></g></g><g fill="#000000" fill-opacity="1"><g transform="translate(305.88767, 243.806235)"><g><path d="M 51 0 L 21 0 C 18.46875 0 16.632812 -0.566406 15.5 -1.703125 C 14.363281 -2.835938 13.796875 -4.671875 13.796875 -7.203125 L 13.796875 -136.796875 C 13.796875 -139.328125 14.363281 -141.160156 15.5 -142.296875 C 16.632812 -143.429688 18.46875 -144 21 -144 L 41.796875 -144 C 44.328125 -144 46.492188 -143.597656 48.296875 -142.796875 C 50.097656 -141.992188 51.863281 -140.59375 53.59375 -138.59375 L 92.40625 -94.203125 L 92.40625 -136.796875 C 92.40625 -139.328125 92.96875 -141.160156 94.09375 -142.296875 C 95.226562 -143.429688 97.0625 -144 99.59375 -144 L 129.59375 -144 C 132.132812 -144 133.96875 -143.429688 135.09375 -142.296875 C 136.226562 -141.160156 136.796875 -139.328125 136.796875 -136.796875 L 136.796875 -7.203125 C 136.796875 -4.671875 136.226562 -2.835938 135.09375 -1.703125 C 133.96875 -0.566406 132.132812 0 129.59375 0 L 99.59375 0 C 97.0625 0 95.226562 -0.566406 94.09375 -1.703125 C 92.96875 -2.835938 92.40625 -4.671875 92.40625 -7.203125 L 92.40625 -31.796875 L 58.203125 -73.203125 L 58.203125 -7.203125 C 58.203125 -4.671875 57.632812 -2.835938 56.5 -1.703125 C 55.363281 -0.566406 53.53125 0 51 0 Z M 51 0 "/></g></g></g><g fill="#000000" fill-opacity="1"><g transform="translate(456.48367, 243.806235)"><g><path d="M 66 -102 L 56.59375 -71.59375 L 88 -71.59375 L 78.59375 -102 C 78.0625 -103.195312 77.492188 -104.0625 76.890625 -104.59375 C 76.296875 -105.132812 75.597656 -105.40625 74.796875 -105.40625 L 69.796875 -105.40625 C 68.992188 -105.40625 68.289062 -105.132812 67.6875 -104.59375 C 67.09375 -104.0625 66.53125 -103.195312 66 -102 Z M 54.59375 -7.203125 C 54.59375 -4.671875 54.023438 -2.835938 52.890625 -1.703125 C 51.765625 -0.566406 49.9375 0 47.40625 0 L 18 0 C 15.46875 0 13.632812 -0.566406 12.5 -1.703125 C 11.363281 -2.835938 10.796875 -4.671875 10.796875 -7.203125 L 10.796875 -60 C 10.796875 -64 11.425781 -68.597656 12.6875 -73.796875 C 13.957031 -78.992188 15.925781 -85.0625 18.59375 -92 L 36 -137.40625 C 36.800781 -139.664062 38.035156 -141.328125 39.703125 -142.390625 C 41.367188 -143.460938 43.535156 -144 46.203125 -144 L 100 -144 C 102.53125 -144 104.628906 -143.460938 106.296875 -142.390625 C 107.960938 -141.328125 109.195312 -139.664062 110 -137.40625 L 127.40625 -92 C 130.070312 -85.0625 132.035156 -78.992188 133.296875 -73.796875 C 134.566406 -68.597656 135.203125 -64 135.203125 -60 L 135.203125 -7.203125 C 135.203125 -4.671875 134.632812 -2.835938 133.5 -1.703125 C 132.363281 -0.566406 130.53125 0 128 0 L 97.796875 0 C 95.128906 0 93.160156 -0.566406 91.890625 -1.703125 C 90.628906 -2.835938 90 -4.671875 90 -7.203125 L 90 -35.203125 L 54.59375 -35.203125 Z M 54.59375 -7.203125 "/></g></g></g><g fill="#000000" fill-opacity="1"><g transform="translate(602.479786, 243.806235)"><g><path d="M 52 0 L 21 0 C 18.46875 0 16.632812 -0.566406 15.5 -1.703125 C 14.363281 -2.835938 13.796875 -4.671875 13.796875 -7.203125 L 13.796875 -136.796875 C 13.796875 -139.328125 14.363281 -141.160156 15.5 -142.296875 C 16.632812 -143.429688 18.46875 -144 21 -144 L 110.203125 -144 C 112.734375 -144 114.566406 -143.429688 115.703125 -142.296875 C 116.835938 -141.160156 117.40625 -139.328125 117.40625 -136.796875 L 117.40625 -113 C 117.40625 -110.46875 116.835938 -108.632812 115.703125 -107.5 C 114.566406 -106.363281 112.734375 -105.796875 110.203125 -105.796875 L 59.203125 -105.796875 L 59.203125 -85 L 94 -85 C 96.53125 -85 98.363281 -84.429688 99.5 -83.296875 C 100.632812 -82.160156 101.203125 -80.328125 101.203125 -77.796875 L 101.203125 -53.796875 C 101.203125 -51.265625 100.632812 -49.429688 99.5 -48.296875 C 98.363281 -47.160156 96.53125 -46.59375 94 -46.59375 L 59.203125 -46.59375 L 59.203125 -7.203125 C 59.203125 -4.671875 58.632812 -2.835938 57.5 -1.703125 C 56.363281 -0.566406 54.53125 0 52 0 Z M 52 0 "/></g></g></g><g fill="#ff00ff" fill-opacity="1"><g transform="translate(728.446839, 237.720534)"><g><path d="M 34.671875 -90.828125 C 34.671875 -90.828125 35.4375 -90.972656 36.96875 -91.265625 C 38.5 -91.554688 39.992188 -91.71875 41.453125 -91.75 C 42.921875 -91.78125 43.6875 -91.796875 43.75 -91.796875 C 46.613281 -91.796875 52.113281 -90.984375 60.25 -89.359375 C 59.664062 -89.554688 59.082031 -89.65625 58.5 -89.65625 C 57.195312 -89.65625 55.894531 -89.132812 54.59375 -88.09375 C 58.363281 -88.9375 63.832031 -90.171875 71 -91.796875 C 71.519531 -91.929688 72.070312 -92.0625 72.65625 -92.1875 C 70.894531 -94.007812 69.300781 -95.863281 67.875 -97.75 C 66.050781 -100.09375 64.941406 -101.851562 64.546875 -103.03125 C 64.421875 -103.675781 64.359375 -104.296875 64.359375 -104.890625 C 64.359375 -107.234375 65.460938 -109.445312 67.671875 -111.53125 C 68.128906 -111.914062 68.585938 -112.304688 69.046875 -112.703125 C 59.992188 -110.285156 52.632812 -108.425781 46.96875 -107.125 C 45.34375 -106.800781 43.75 -106.640625 42.1875 -106.640625 C 39.195312 -106.640625 35.957031 -107.351562 32.46875 -108.78125 C 28.988281 -110.21875 25.632812 -112.285156 22.40625 -114.984375 C 19.1875 -117.691406 16.648438 -120.179688 14.796875 -122.453125 C 12.941406 -124.734375 12.015625 -125.875 12.015625 -125.875 C 12.015625 -125.875 14.648438 -126.625 19.921875 -128.125 C 25.191406 -129.625 33.785156 -131.609375 45.703125 -134.078125 C 57.296875 -136.421875 72.691406 -139.0625 91.890625 -142 C 93.066406 -144.082031 94.207031 -146.6875 95.3125 -149.8125 C 96.351562 -152.863281 96.875 -156.148438 96.875 -159.671875 C 96.875 -160.054688 96.84375 -161.335938 96.78125 -163.515625 C 96.71875 -165.703125 95.316406 -168.71875 92.578125 -172.5625 C 92.578125 -172.5625 95.097656 -172.523438 100.140625 -172.453125 C 105.191406 -172.390625 110.335938 -172.066406 115.578125 -171.484375 C 120.816406 -170.898438 124.117188 -169.828125 125.484375 -168.265625 C 126.660156 -166.179688 127.25 -163.769531 127.25 -161.03125 C 127.25 -160.25 127.117188 -158.71875 126.859375 -156.4375 C 126.597656 -154.164062 125.785156 -152.28125 124.421875 -150.78125 C 122.078125 -149.414062 116.28125 -147.171875 107.03125 -144.046875 C 121.09375 -145.804688 133.59375 -147.039062 144.53125 -147.75 C 156.707031 -148.46875 166.570312 -148.828125 174.125 -148.828125 C 175.625 -148.828125 178.679688 -148.773438 183.296875 -148.671875 C 187.921875 -148.578125 190.234375 -148.53125 190.234375 -148.53125 C 192.773438 -148.207031 195.203125 -146.207031 197.515625 -142.53125 C 199.828125 -138.851562 201.289062 -135.546875 201.90625 -132.609375 C 202.519531 -129.679688 202.828125 -127.566406 202.828125 -126.265625 C 202.828125 -124.117188 202.34375 -122.394531 201.375 -121.09375 C 200.070312 -119.40625 198.945312 -118.539062 198 -118.5 C 197.050781 -118.46875 196.546875 -118.453125 196.484375 -118.453125 C 194.535156 -118.453125 190.453125 -118.925781 184.234375 -119.875 C 178.015625 -120.820312 167.582031 -121.878906 152.9375 -123.046875 C 147.988281 -123.367188 143.132812 -123.53125 138.375 -123.53125 C 138.832031 -123.269531 139.320312 -123.046875 139.84375 -122.859375 C 142.125 -121.816406 144.078125 -120.691406 145.703125 -119.484375 C 147.328125 -118.273438 148.269531 -117.054688 148.53125 -115.828125 C 148.53125 -115.429688 148.53125 -115.039062 148.53125 -114.65625 C 148.53125 -111.789062 147.914062 -108.46875 146.6875 -104.6875 C 147.851562 -104.75 148.957031 -104.78125 150 -104.78125 C 152.082031 -104.78125 153.9375 -104.6875 155.5625 -104.5 C 165.195312 -102.675781 172.519531 -100.148438 177.53125 -96.921875 C 182.550781 -93.703125 185.8125 -91.28125 187.3125 -89.65625 C 188.21875 -88.875 188.671875 -87.734375 188.671875 -86.234375 C 188.671875 -86.097656 188.640625 -85.523438 188.578125 -84.515625 C 188.515625 -83.515625 188.222656 -81.253906 187.703125 -77.734375 C 187.179688 -74.222656 186.882812 -69.472656 186.8125 -63.484375 C 186.882812 -58.660156 187.03125 -52.550781 187.25 -45.15625 C 187.476562 -37.769531 187.59375 -31.378906 187.59375 -25.984375 C 187.59375 -21.097656 187.492188 -14.695312 187.296875 -6.78125 C 187.109375 1.125 186.195312 9.160156 184.5625 17.328125 C 182.9375 25.503906 180.207031 30.503906 176.375 32.328125 C 175 32.785156 173.566406 33.015625 172.078125 33.015625 C 169.273438 33.015625 165.90625 31.9375 161.96875 29.78125 C 158.03125 27.632812 153.878906 24.460938 149.515625 20.265625 C 145.148438 16.066406 141.535156 12.222656 138.671875 8.734375 C 135.804688 5.253906 134.375 3.515625 134.375 3.515625 C 134.375 3.515625 135.96875 3.5625 139.15625 3.65625 C 142.351562 3.757812 144.34375 3.8125 145.125 3.8125 C 149.351562 3.8125 152.3125 3.390625 154 2.546875 C 155.5 -8.328125 156.265625 -18.320312 156.296875 -27.4375 C 156.328125 -36.550781 156.34375 -41.46875 156.34375 -42.1875 C 156.34375 -58.53125 155.628906 -70.707031 154.203125 -78.71875 C 151.335938 -79.5 147.398438 -79.890625 142.390625 -79.890625 C 138.285156 -79.890625 131.738281 -79.476562 122.75 -78.65625 C 113.769531 -77.84375 103.453125 -76.429688 91.796875 -74.421875 C 81.515625 -72.660156 74.582031 -71.160156 71 -69.921875 C 70.863281 -69.335938 70.765625 -68.71875 70.703125 -68.0625 C 70.117188 -65.070312 69.660156 -60.890625 69.328125 -55.515625 C 69.003906 -50.148438 68.8125 -43.265625 68.75 -34.859375 C 68.882812 -26.398438 69.128906 -19.335938 69.484375 -13.671875 C 69.835938 -8.003906 70.015625 -3.476562 70.015625 -0.09375 C 70.015625 2.769531 69.867188 6.171875 69.578125 10.109375 C 69.285156 14.046875 67.867188 17.316406 65.328125 19.921875 C 59.992188 24.929688 57.328125 27.4375 57.328125 27.4375 C 57.328125 27.4375 55.988281 26.523438 53.3125 24.703125 C 50.644531 22.878906 48.007812 20.257812 45.40625 16.84375 C 42.800781 13.425781 41.367188 9.34375 41.109375 4.59375 C 41.242188 -2.4375 41.472656 -9.484375 41.796875 -16.546875 C 42.117188 -23.617188 42.28125 -28.679688 42.28125 -31.734375 C 42.28125 -41.503906 41.628906 -52.929688 40.328125 -66.015625 C 39.359375 -73.890625 38.171875 -79.992188 36.765625 -84.328125 C 35.367188 -88.660156 34.671875 -90.828125 34.671875 -90.828125 Z M 93.75 -96.578125 C 101.957031 -98.210938 110.390625 -99.773438 119.046875 -101.265625 C 119.171875 -101.265625 119.300781 -101.300781 119.4375 -101.375 C 119.894531 -102.019531 120.347656 -102.765625 120.796875 -103.609375 C 122.492188 -106.671875 123.832031 -110.316406 124.8125 -114.546875 C 125.332031 -116.628906 125.59375 -118.78125 125.59375 -121 C 125.59375 -121.644531 125.554688 -122.328125 125.484375 -123.046875 C 120.148438 -122.722656 114.878906 -122.171875 109.671875 -121.390625 C 102.960938 -120.347656 96.582031 -119.207031 90.53125 -117.96875 C 89.75 -116.082031 89.160156 -114.066406 88.765625 -111.921875 C 88.640625 -111.328125 88.578125 -110.738281 88.578125 -110.15625 C 88.578125 -107.875 89.519531 -105.890625 91.40625 -104.203125 C 93.425781 -102.578125 94.4375 -100.914062 94.4375 -99.21875 C 94.4375 -98.894531 94.40625 -98.601562 94.34375 -98.34375 C 94.207031 -97.757812 94.007812 -97.171875 93.75 -96.578125 Z M 115.046875 -77.640625 C 115.046875 -77.640625 116.769531 -77.28125 120.21875 -76.5625 C 123.664062 -75.84375 127.632812 -74.894531 132.125 -73.71875 C 136.625 -72.550781 140.644531 -71.300781 144.1875 -69.96875 C 147.738281 -68.632812 149.773438 -67.316406 150.296875 -66.015625 C 150.878906 -64.328125 151.171875 -62.601562 151.171875 -60.84375 C 151.171875 -59.800781 150.988281 -58.300781 150.625 -56.34375 C 150.269531 -54.394531 148.175781 -53.09375 144.34375 -52.4375 C 144.007812 -52.375 143.648438 -52.34375 143.265625 -52.34375 C 140.660156 -52.34375 137.351562 -53.1875 133.34375 -54.875 C 129.34375 -56.570312 125.664062 -58.640625 122.3125 -61.078125 C 118.957031 -63.523438 117.25 -65.691406 117.1875 -67.578125 C 117.1875 -70.316406 116.828125 -72.675781 116.109375 -74.65625 C 115.398438 -76.644531 115.046875 -77.640625 115.046875 -77.640625 Z M 108.984375 -74.3125 C 108.984375 -74.3125 107.910156 -73.484375 105.765625 -71.828125 C 103.617188 -70.171875 102.054688 -68.539062 101.078125 -66.9375 C 100.097656 -65.34375 99.609375 -64.09375 99.609375 -63.1875 C 99.609375 -62.082031 100.097656 -61.007812 101.078125 -59.96875 C 101.921875 -59.1875 102.34375 -58.453125 102.34375 -57.765625 C 102.34375 -57.078125 102.03125 -56.40625 101.40625 -55.75 C 100.789062 -55.101562 99.945312 -54.472656 98.875 -53.859375 C 97.800781 -53.242188 96.613281 -52.640625 95.3125 -52.046875 C 94.007812 -51.460938 92.691406 -50.878906 91.359375 -50.296875 C 90.023438 -49.710938 88.738281 -49.125 87.5 -48.53125 C 86.257812 -47.945312 85.21875 -47.363281 84.375 -46.78125 C 83.46875 -46.257812 82.585938 -46 81.734375 -46 C 80.628906 -46 79.34375 -46.613281 77.875 -47.84375 C 76.414062 -49.082031 75.097656 -50.890625 73.921875 -53.265625 C 72.753906 -55.648438 72.140625 -57.457031 72.078125 -58.6875 C 72.203125 -61.164062 74.085938 -63.363281 77.734375 -65.28125 C 81.378906 -67.207031 85.609375 -68.835938 90.421875 -70.171875 C 95.242188 -71.503906 99.539062 -72.523438 103.3125 -73.234375 C 107.09375 -73.953125 108.984375 -74.3125 108.984375 -74.3125 Z M 76.46875 -44.234375 C 76.46875 -44.234375 78.128906 -44.140625 81.453125 -43.953125 C 84.179688 -43.816406 86.945312 -43.425781 89.75 -42.78125 C 93.257812 -43.75 97.164062 -44.722656 101.46875 -45.703125 C 107.0625 -47.003906 112.007812 -47.851562 116.3125 -48.25 C 120.539062 -48.632812 124.054688 -49.003906 126.859375 -49.359375 C 129.660156 -49.722656 131.773438 -49.90625 133.203125 -49.90625 C 135.347656 -49.90625 137.546875 -49.609375 139.796875 -49.015625 C 142.046875 -48.429688 143.460938 -46.546875 144.046875 -43.359375 C 144.367188 -41.859375 144.53125 -40.296875 144.53125 -38.671875 C 144.53125 -37.367188 144.367188 -35.578125 144.046875 -33.296875 C 143.722656 -31.023438 142.289062 -28 139.75 -24.21875 C 138.445312 -22.457031 137.242188 -20.894531 136.140625 -19.53125 C 136.523438 -19.46875 136.914062 -19.40625 137.3125 -19.34375 C 138.875 -18.945312 139.800781 -17.898438 140.09375 -16.203125 C 140.382812 -14.515625 140.53125 -13.117188 140.53125 -12.015625 C 140.53125 -10.710938 140.332031 -9.097656 139.9375 -7.171875 C 139.550781 -5.253906 138.738281 -3.84375 137.5 -2.9375 C 133.007812 -3.125 128.8125 -3.21875 124.90625 -3.21875 C 114.226562 -3.21875 105.734375 -2.4375 99.421875 -0.875 C 99.160156 -0.550781 98.863281 -0.257812 98.53125 0 C 96.1875 2.082031 94.265625 3.316406 92.765625 3.703125 C 91.273438 4.097656 90.300781 4.296875 89.84375 4.296875 C 88.28125 4.296875 87.238281 3.414062 86.71875 1.65625 C 79.882812 -28.9375 76.46875 -44.234375 76.46875 -44.234375 Z M 101.953125 -16.40625 C 104.953125 -16.800781 108.4375 -17.191406 112.40625 -17.578125 C 113.90625 -19.535156 115.175781 -21.359375 116.21875 -23.046875 C 117.90625 -25.910156 119.140625 -28.238281 119.921875 -30.03125 C 120.703125 -31.820312 121.09375 -32.71875 121.09375 -32.71875 C 121.09375 -32.71875 118.457031 -32.257812 113.1875 -31.34375 C 108.238281 -30.5 103.648438 -29.847656 99.421875 -29.390625 C 99.867188 -27.179688 100.390625 -24.707031 100.984375 -21.96875 C 101.367188 -19.957031 101.691406 -18.101562 101.953125 -16.40625 Z M 101.953125 -16.40625 "/></g></g><g transform="translate(943.285204, 237.720534)"><g><path d="M 154.78125 -157.328125 C 154.78125 -157.328125 156.535156 -158.445312 160.046875 -160.6875 C 163.566406 -162.9375 167.148438 -164.890625 170.796875 -166.546875 C 174.441406 -168.210938 177.375 -169.046875 179.59375 -169.046875 C 180.375 -169.046875 181.085938 -168.945312 181.734375 -168.75 C 185.578125 -167.125 188.71875 -164.632812 191.15625 -161.28125 C 193.601562 -157.925781 194.828125 -155.273438 194.828125 -153.328125 C 194.828125 -152.671875 194.726562 -152.050781 194.53125 -151.46875 C 192.96875 -149.125 190.28125 -145.769531 186.46875 -141.40625 C 182.664062 -137.039062 180.765625 -134.859375 180.765625 -134.859375 C 180.765625 -134.859375 180.679688 -135.507812 180.515625 -136.8125 C 180.359375 -138.113281 179.867188 -139.644531 179.046875 -141.40625 C 178.234375 -143.164062 176.851562 -144.757812 174.90625 -146.1875 C 171.644531 -148.34375 167.472656 -150.738281 162.390625 -153.375 C 157.316406 -156.007812 154.78125 -157.328125 154.78125 -157.328125 Z M 68.5625 -107.90625 C 68.5625 -107.90625 68.867188 -108.066406 69.484375 -108.390625 C 70.097656 -108.722656 72.519531 -109.523438 76.75 -110.796875 C 80.988281 -112.066406 88.25 -114.035156 98.53125 -116.703125 C 109.40625 -119.304688 120.898438 -121.710938 133.015625 -123.921875 C 132.617188 -126.984375 132.320312 -129.882812 132.125 -132.625 C 131.15625 -142.707031 130.570312 -148.46875 130.375 -149.90625 C 130.570312 -154.132812 131.921875 -156.457031 134.421875 -156.875 C 136.929688 -157.300781 138.738281 -157.515625 139.84375 -157.515625 C 142.644531 -157.515625 145.753906 -156.78125 149.171875 -155.3125 C 152.585938 -153.851562 154.425781 -151.660156 154.6875 -148.734375 C 154.6875 -148.671875 154.6875 -148.570312 154.6875 -148.4375 C 154.6875 -145.3125 155.597656 -138.507812 157.421875 -128.03125 C 176.628906 -130.894531 186.234375 -132.328125 186.234375 -132.328125 C 186.359375 -132.328125 186.519531 -132.328125 186.71875 -132.328125 C 188.9375 -132.328125 191.296875 -130.957031 193.796875 -128.21875 C 196.304688 -125.488281 197.9375 -122.769531 198.6875 -120.0625 C 199.4375 -117.363281 199.8125 -115.394531 199.8125 -114.15625 C 199.8125 -111.625 199.0625 -109.21875 197.5625 -106.9375 C 195.21875 -103.875 192.515625 -102.179688 189.453125 -101.859375 C 186.390625 -101.535156 183.363281 -101.375 180.375 -101.375 C 178.351562 -101.375 176.171875 -101.4375 173.828125 -101.5625 C 173.046875 -101.5625 172.234375 -101.5625 171.390625 -101.5625 C 168.003906 -101.5625 164.257812 -101.367188 160.15625 -100.984375 C 161.59375 -91.671875 163.351562 -81.675781 165.4375 -71 C 166.539062 -65.394531 167.710938 -59.894531 168.953125 -54.5 C 169.796875 -56.90625 170.507812 -59.378906 171.09375 -61.921875 C 171.9375 -65.691406 172.359375 -69.691406 172.359375 -73.921875 C 172.359375 -78.285156 171.90625 -82.84375 171 -87.59375 C 171 -87.59375 172.984375 -87.363281 176.953125 -86.90625 C 180.921875 -86.457031 184.988281 -85.582031 189.15625 -84.28125 C 193.320312 -82.976562 196.023438 -81.023438 197.265625 -78.421875 C 197.585938 -77.503906 197.75 -76.300781 197.75 -74.8125 C 197.75 -71.351562 196.675781 -65.488281 194.53125 -57.21875 C 192.382812 -48.957031 187.894531 -38.867188 181.0625 -26.953125 C 180.144531 -25.328125 179.164062 -23.734375 178.125 -22.171875 C 178.445312 -21.191406 178.773438 -20.25 179.109375 -19.34375 C 180.410156 -15.238281 182.082031 -11.570312 184.125 -8.34375 C 186.175781 -5.125 187.9375 -2.941406 189.40625 -1.796875 C 190.875 -0.660156 192 -0.09375 192.78125 -0.09375 C 193.425781 -0.09375 193.976562 -0.390625 194.4375 -0.984375 C 196.257812 -3.710938 199.332031 -8.410156 203.65625 -15.078125 C 207.988281 -21.753906 210.484375 -25.320312 211.140625 -25.78125 C 211.203125 -24.675781 211.6875 -19.515625 212.59375 -10.296875 C 213.507812 -1.085938 215.109375 7.78125 217.390625 16.3125 C 218.035156 17.550781 218.359375 18.722656 218.359375 19.828125 C 218.359375 21.972656 216.796875 24.070312 213.671875 26.125 C 210.546875 28.175781 207.304688 29.234375 203.953125 29.296875 C 200.597656 29.359375 198.828125 29.390625 198.640625 29.390625 C 192.316406 29.390625 186.03125 27.695312 179.78125 24.3125 C 172.488281 18.457031 166.175781 9.863281 160.84375 -1.46875 C 158.4375 0.8125 155.863281 3.0625 153.125 5.28125 C 147.269531 9.445312 140.972656 12.113281 134.234375 13.28125 C 127.492188 14.457031 121.648438 15.046875 116.703125 15.046875 C 115.921875 15.046875 113.96875 14.992188 110.84375 14.890625 C 107.71875 14.796875 106.15625 14.75 106.15625 14.75 C 106.15625 14.75 108.367188 13.59375 112.796875 11.28125 C 117.222656 8.96875 122.523438 5.398438 128.703125 0.578125 C 134.890625 -4.234375 140.914062 -10.351562 146.78125 -17.78125 C 148.539062 -20.050781 150.234375 -22.328125 151.859375 -24.609375 C 149.378906 -32.222656 147.195312 -40.234375 145.3125 -48.640625 C 144.53125 -51.828125 143.816406 -55.015625 143.171875 -58.203125 C 143.097656 -55.660156 142.898438 -52.375 142.578125 -48.34375 C 141.929688 -40.269531 140.628906 -32.519531 138.671875 -25.09375 C 136.847656 -18.257812 134.84375 -12.742188 132.65625 -8.546875 C 130.476562 -4.347656 127.40625 -1.207031 123.4375 0.875 C 122.59375 1.207031 121.710938 1.375 120.796875 1.375 C 118.847656 1.375 116.632812 0.347656 114.15625 -1.703125 C 111.6875 -3.753906 109.425781 -6.3125 107.375 -9.375 C 105.320312 -12.4375 104.296875 -13.96875 104.296875 -13.96875 C 104.296875 -13.96875 105.597656 -14.082031 108.203125 -14.3125 C 110.804688 -14.539062 112.859375 -15.140625 114.359375 -16.109375 C 115.984375 -18.523438 117.394531 -22.53125 118.59375 -28.125 C 119.800781 -33.726562 120.40625 -39.847656 120.40625 -46.484375 C 115.71875 -46.285156 111.78125 -46.09375 108.59375 -45.90625 C 107.945312 -40.5 107.066406 -34.960938 105.953125 -29.296875 C 103.609375 -17.453125 99.832031 -5.992188 94.625 5.078125 C 91.570312 10.941406 87.585938 15.222656 82.671875 17.921875 C 77.753906 20.617188 73.226562 22.226562 69.09375 22.75 C 64.957031 23.269531 61.585938 23.53125 58.984375 23.53125 C 57.421875 23.53125 55.4375 23.398438 53.03125 23.140625 C 50.625 22.878906 49.421875 22.75 49.421875 22.75 C 49.421875 22.75 50.960938 20.972656 54.046875 17.421875 C 57.140625 13.878906 60.640625 9.0625 64.546875 2.96875 C 68.453125 -3.113281 71.835938 -10.125 74.703125 -18.0625 C 76.335938 -22.882812 78.082031 -29.265625 79.9375 -37.203125 C 81.789062 -45.148438 83.171875 -53.613281 84.078125 -62.59375 C 84.410156 -66.175781 84.578125 -69.691406 84.578125 -73.140625 C 84.578125 -78.160156 84.21875 -83.015625 83.5 -87.703125 C 82.457031 -87.960938 81.476562 -88.351562 80.5625 -88.875 C 77.375 -90.625 74.898438 -92.976562 73.140625 -95.9375 C 71.390625 -98.90625 70.1875 -101.640625 69.53125 -104.140625 C 68.882812 -106.648438 68.5625 -107.90625 68.5625 -107.90625 Z M 26.46875 -128.515625 C 26.46875 -128.054688 27.753906 -127.535156 30.328125 -126.953125 C 32.898438 -126.367188 35.878906 -126.078125 39.265625 -126.078125 C 40.890625 -126.078125 42.675781 -126.140625 44.625 -126.265625 C 44.882812 -126.265625 45.113281 -126.265625 45.3125 -126.265625 C 48.832031 -126.265625 51.335938 -125.335938 52.828125 -123.484375 C 54.328125 -121.628906 55.140625 -119.804688 55.265625 -118.015625 C 55.398438 -116.222656 55.46875 -114.875 55.46875 -113.96875 C 55.46875 -113.25 55.4375 -112.660156 55.375 -112.203125 C 55.113281 -111.296875 54.5625 -107.847656 53.71875 -101.859375 C 53.382812 -99.710938 53.125 -96.847656 52.9375 -93.265625 C 53.195312 -93.390625 53.421875 -93.519531 53.609375 -93.65625 C 56.023438 -95.082031 58.925781 -95.796875 62.3125 -95.796875 C 62.957031 -95.796875 63.640625 -95.765625 64.359375 -95.703125 C 66.117188 -95.378906 67.757812 -94.4375 69.28125 -92.875 C 70.8125 -91.3125 72.144531 -89.390625 73.28125 -87.109375 C 74.425781 -84.828125 75.320312 -82.5 75.96875 -80.125 C 76.625 -77.75 76.96875 -76.039062 77 -75 C 77.03125 -73.957031 77.046875 -73.335938 77.046875 -73.140625 C 77.046875 -71.515625 76.753906 -70.3125 76.171875 -69.53125 C 74.285156 -67.125 72.578125 -65.882812 71.046875 -65.8125 C 69.515625 -65.75 68.257812 -65.71875 67.28125 -65.71875 C 65.394531 -65.71875 63.148438 -65.785156 60.546875 -65.921875 C 60.285156 -65.921875 60.023438 -65.921875 59.765625 -65.921875 C 57.742188 -65.921875 55.335938 -65.691406 52.546875 -65.234375 C 52.546875 -62.503906 52.546875 -59.898438 52.546875 -57.421875 C 52.546875 -52.535156 52.507812 -48.269531 52.4375 -44.625 C 53.351562 -45.082031 54.265625 -45.507812 55.171875 -45.90625 C 63.054688 -49.476562 69.519531 -52.238281 74.5625 -54.1875 C 79.601562 -56.144531 82.125 -57.125 82.125 -57.125 C 82.125 -57.125 80.738281 -54.210938 77.96875 -48.390625 C 75.207031 -42.566406 73.015625 -37.472656 71.390625 -33.109375 C 70.472656 -30.628906 68.726562 -28.671875 66.15625 -27.234375 C 63.59375 -25.804688 60.535156 -24.164062 56.984375 -22.3125 C 53.429688 -20.457031 49.738281 -17.644531 45.90625 -13.875 C 42.0625 -9.894531 37.988281 -6.359375 33.6875 -3.265625 C 29.394531 -0.171875 26.0625 1.679688 23.6875 2.296875 C 21.3125 2.910156 19.664062 3.21875 18.75 3.21875 C 16.40625 3.21875 14.519531 2.34375 13.09375 0.59375 C 9.894531 -3.382812 6.328125 -7.128906 2.390625 -10.640625 C -1.546875 -14.160156 -3.515625 -15.921875 -3.515625 -15.921875 C -0.910156 -18.984375 1.140625 -20.96875 2.640625 -21.875 C 4.140625 -22.789062 5.78125 -23.410156 7.5625 -23.734375 C 9.351562 -24.054688 11.976562 -24.835938 15.4375 -26.078125 C 18.75 -27.242188 23.566406 -29.554688 29.890625 -33.015625 C 29.171875 -37.242188 28.679688 -42.15625 28.421875 -47.75 C 28.359375 -49.769531 28.328125 -51.890625 28.328125 -54.109375 C 28.328125 -55.210938 28.328125 -56.316406 28.328125 -57.421875 C 25.265625 -56.054688 22.039062 -54.492188 18.65625 -52.734375 C 18.070312 -52.472656 17.453125 -52.34375 16.796875 -52.34375 C 15.296875 -52.34375 13.601562 -53.269531 11.71875 -55.125 C 9.832031 -56.976562 7.941406 -59.628906 6.046875 -63.078125 C 4.160156 -66.535156 2.613281 -69.679688 1.40625 -72.515625 C 0.207031 -75.347656 -0.390625 -76.765625 -0.390625 -76.765625 C -0.390625 -76.765625 1.984375 -77.203125 6.734375 -78.078125 C 11.492188 -78.953125 17.191406 -80.238281 23.828125 -81.9375 C 25.523438 -82.394531 27.1875 -82.847656 28.8125 -83.296875 C 28.675781 -90.140625 28.382812 -97.597656 27.9375 -105.671875 C 26.957031 -120.898438 26.46875 -128.515625 26.46875 -128.515625 Z M 109.96875 -67.484375 C 114.0625 -68.585938 118.550781 -69.300781 123.4375 -69.625 C 124.476562 -69.757812 125.519531 -69.828125 126.5625 -69.828125 C 128.78125 -69.828125 131.09375 -69.515625 133.5 -68.890625 C 135.90625 -68.273438 138.019531 -67.445312 139.84375 -66.40625 C 140.625 -65.882812 141.242188 -65.394531 141.703125 -64.9375 C 139.679688 -75.164062 137.988281 -85.191406 136.625 -95.015625 C 136.488281 -95.796875 136.390625 -96.578125 136.328125 -97.359375 C 126.492188 -95.609375 117.21875 -93.722656 108.5 -91.703125 C 108.625 -90.859375 108.785156 -89.945312 108.984375 -88.96875 C 109.640625 -83.820312 109.96875 -77.832031 109.96875 -71 C 109.96875 -69.820312 109.96875 -68.648438 109.96875 -67.484375 Z M 109.96875 -67.484375 "/></g></g></g><g fill="#00ffff" fill-opacity="1"><g transform="translate(723.72688, 231.891935)"><g><path d="M 34.671875 -90.828125 C 34.671875 -90.828125 35.4375 -90.972656 36.96875 -91.265625 C 38.5 -91.554688 39.992188 -91.71875 41.453125 -91.75 C 42.921875 -91.78125 43.6875 -91.796875 43.75 -91.796875 C 46.613281 -91.796875 52.113281 -90.984375 60.25 -89.359375 C 59.664062 -89.554688 59.082031 -89.65625 58.5 -89.65625 C 57.195312 -89.65625 55.894531 -89.132812 54.59375 -88.09375 C 58.363281 -88.9375 63.832031 -90.171875 71 -91.796875 C 71.519531 -91.929688 72.070312 -92.0625 72.65625 -92.1875 C 70.894531 -94.007812 69.300781 -95.863281 67.875 -97.75 C 66.050781 -100.09375 64.941406 -101.851562 64.546875 -103.03125 C 64.421875 -103.675781 64.359375 -104.296875 64.359375 -104.890625 C 64.359375 -107.234375 65.460938 -109.445312 67.671875 -111.53125 C 68.128906 -111.914062 68.585938 -112.304688 69.046875 -112.703125 C 59.992188 -110.285156 52.632812 -108.425781 46.96875 -107.125 C 45.34375 -106.800781 43.75 -106.640625 42.1875 -106.640625 C 39.195312 -106.640625 35.957031 -107.351562 32.46875 -108.78125 C 28.988281 -110.21875 25.632812 -112.285156 22.40625 -114.984375 C 19.1875 -117.691406 16.648438 -120.179688 14.796875 -122.453125 C 12.941406 -124.734375 12.015625 -125.875 12.015625 -125.875 C 12.015625 -125.875 14.648438 -126.625 19.921875 -128.125 C 25.191406 -129.625 33.785156 -131.609375 45.703125 -134.078125 C 57.296875 -136.421875 72.691406 -139.0625 91.890625 -142 C 93.066406 -144.082031 94.207031 -146.6875 95.3125 -149.8125 C 96.351562 -152.863281 96.875 -156.148438 96.875 -159.671875 C 96.875 -160.054688 96.84375 -161.335938 96.78125 -163.515625 C 96.71875 -165.703125 95.316406 -168.71875 92.578125 -172.5625 C 92.578125 -172.5625 95.097656 -172.523438 100.140625 -172.453125 C 105.191406 -172.390625 110.335938 -172.066406 115.578125 -171.484375 C 120.816406 -170.898438 124.117188 -169.828125 125.484375 -168.265625 C 126.660156 -166.179688 127.25 -163.769531 127.25 -161.03125 C 127.25 -160.25 127.117188 -158.71875 126.859375 -156.4375 C 126.597656 -154.164062 125.785156 -152.28125 124.421875 -150.78125 C 122.078125 -149.414062 116.28125 -147.171875 107.03125 -144.046875 C 121.09375 -145.804688 133.59375 -147.039062 144.53125 -147.75 C 156.707031 -148.46875 166.570312 -148.828125 174.125 -148.828125 C 175.625 -148.828125 178.679688 -148.773438 183.296875 -148.671875 C 187.921875 -148.578125 190.234375 -148.53125 190.234375 -148.53125 C 192.773438 -148.207031 195.203125 -146.207031 197.515625 -142.53125 C 199.828125 -138.851562 201.289062 -135.546875 201.90625 -132.609375 C 202.519531 -129.679688 202.828125 -127.566406 202.828125 -126.265625 C 202.828125 -124.117188 202.34375 -122.394531 201.375 -121.09375 C 200.070312 -119.40625 198.945312 -118.539062 198 -118.5 C 197.050781 -118.46875 196.546875 -118.453125 196.484375 -118.453125 C 194.535156 -118.453125 190.453125 -118.925781 184.234375 -119.875 C 178.015625 -120.820312 167.582031 -121.878906 152.9375 -123.046875 C 147.988281 -123.367188 143.132812 -123.53125 138.375 -123.53125 C 138.832031 -123.269531 139.320312 -123.046875 139.84375 -122.859375 C 142.125 -121.816406 144.078125 -120.691406 145.703125 -119.484375 C 147.328125 -118.273438 148.269531 -117.054688 148.53125 -115.828125 C 148.53125 -115.429688 148.53125 -115.039062 148.53125 -114.65625 C 148.53125 -111.789062 147.914062 -108.46875 146.6875 -104.6875 C 147.851562 -104.75 148.957031 -104.78125 150 -104.78125 C 152.082031 -104.78125 153.9375 -104.6875 155.5625 -104.5 C 165.195312 -102.675781 172.519531 -100.148438 177.53125 -96.921875 C 182.550781 -93.703125 185.8125 -91.28125 187.3125 -89.65625 C 188.21875 -88.875 188.671875 -87.734375 188.671875 -86.234375 C 188.671875 -86.097656 188.640625 -85.523438 188.578125 -84.515625 C 188.515625 -83.515625 188.222656 -81.253906 187.703125 -77.734375 C 187.179688 -74.222656 186.882812 -69.472656 186.8125 -63.484375 C 186.882812 -58.660156 187.03125 -52.550781 187.25 -45.15625 C 187.476562 -37.769531 187.59375 -31.378906 187.59375 -25.984375 C 187.59375 -21.097656 187.492188 -14.695312 187.296875 -6.78125 C 187.109375 1.125 186.195312 9.160156 184.5625 17.328125 C 182.9375 25.503906 180.207031 30.503906 176.375 32.328125 C 175 32.785156 173.566406 33.015625 172.078125 33.015625 C 169.273438 33.015625 165.90625 31.9375 161.96875 29.78125 C 158.03125 27.632812 153.878906 24.460938 149.515625 20.265625 C 145.148438 16.066406 141.535156 12.222656 138.671875 8.734375 C 135.804688 5.253906 134.375 3.515625 134.375 3.515625 C 134.375 3.515625 135.96875 3.5625 139.15625 3.65625 C 142.351562 3.757812 144.34375 3.8125 145.125 3.8125 C 149.351562 3.8125 152.3125 3.390625 154 2.546875 C 155.5 -8.328125 156.265625 -18.320312 156.296875 -27.4375 C 156.328125 -36.550781 156.34375 -41.46875 156.34375 -42.1875 C 156.34375 -58.53125 155.628906 -70.707031 154.203125 -78.71875 C 151.335938 -79.5 147.398438 -79.890625 142.390625 -79.890625 C 138.285156 -79.890625 131.738281 -79.476562 122.75 -78.65625 C 113.769531 -77.84375 103.453125 -76.429688 91.796875 -74.421875 C 81.515625 -72.660156 74.582031 -71.160156 71 -69.921875 C 70.863281 -69.335938 70.765625 -68.71875 70.703125 -68.0625 C 70.117188 -65.070312 69.660156 -60.890625 69.328125 -55.515625 C 69.003906 -50.148438 68.8125 -43.265625 68.75 -34.859375 C 68.882812 -26.398438 69.128906 -19.335938 69.484375 -13.671875 C 69.835938 -8.003906 70.015625 -3.476562 70.015625 -0.09375 C 70.015625 2.769531 69.867188 6.171875 69.578125 10.109375 C 69.285156 14.046875 67.867188 17.316406 65.328125 19.921875 C 59.992188 24.929688 57.328125 27.4375 57.328125 27.4375 C 57.328125 27.4375 55.988281 26.523438 53.3125 24.703125 C 50.644531 22.878906 48.007812 20.257812 45.40625 16.84375 C 42.800781 13.425781 41.367188 9.34375 41.109375 4.59375 C 41.242188 -2.4375 41.472656 -9.484375 41.796875 -16.546875 C 42.117188 -23.617188 42.28125 -28.679688 42.28125 -31.734375 C 42.28125 -41.503906 41.628906 -52.929688 40.328125 -66.015625 C 39.359375 -73.890625 38.171875 -79.992188 36.765625 -84.328125 C 35.367188 -88.660156 34.671875 -90.828125 34.671875 -90.828125 Z M 93.75 -96.578125 C 101.957031 -98.210938 110.390625 -99.773438 119.046875 -101.265625 C 119.171875 -101.265625 119.300781 -101.300781 119.4375 -101.375 C 119.894531 -102.019531 120.347656 -102.765625 120.796875 -103.609375 C 122.492188 -106.671875 123.832031 -110.316406 124.8125 -114.546875 C 125.332031 -116.628906 125.59375 -118.78125 125.59375 -121 C 125.59375 -121.644531 125.554688 -122.328125 125.484375 -123.046875 C 120.148438 -122.722656 114.878906 -122.171875 109.671875 -121.390625 C 102.960938 -120.347656 96.582031 -119.207031 90.53125 -117.96875 C 89.75 -116.082031 89.160156 -114.066406 88.765625 -111.921875 C 88.640625 -111.328125 88.578125 -110.738281 88.578125 -110.15625 C 88.578125 -107.875 89.519531 -105.890625 91.40625 -104.203125 C 93.425781 -102.578125 94.4375 -100.914062 94.4375 -99.21875 C 94.4375 -98.894531 94.40625 -98.601562 94.34375 -98.34375 C 94.207031 -97.757812 94.007812 -97.171875 93.75 -96.578125 Z M 115.046875 -77.640625 C 115.046875 -77.640625 116.769531 -77.28125 120.21875 -76.5625 C 123.664062 -75.84375 127.632812 -74.894531 132.125 -73.71875 C 136.625 -72.550781 140.644531 -71.300781 144.1875 -69.96875 C 147.738281 -68.632812 149.773438 -67.316406 150.296875 -66.015625 C 150.878906 -64.328125 151.171875 -62.601562 151.171875 -60.84375 C 151.171875 -59.800781 150.988281 -58.300781 150.625 -56.34375 C 150.269531 -54.394531 148.175781 -53.09375 144.34375 -52.4375 C 144.007812 -52.375 143.648438 -52.34375 143.265625 -52.34375 C 140.660156 -52.34375 137.351562 -53.1875 133.34375 -54.875 C 129.34375 -56.570312 125.664062 -58.640625 122.3125 -61.078125 C 118.957031 -63.523438 117.25 -65.691406 117.1875 -67.578125 C 117.1875 -70.316406 116.828125 -72.675781 116.109375 -74.65625 C 115.398438 -76.644531 115.046875 -77.640625 115.046875 -77.640625 Z M 108.984375 -74.3125 C 108.984375 -74.3125 107.910156 -73.484375 105.765625 -71.828125 C 103.617188 -70.171875 102.054688 -68.539062 101.078125 -66.9375 C 100.097656 -65.34375 99.609375 -64.09375 99.609375 -63.1875 C 99.609375 -62.082031 100.097656 -61.007812 101.078125 -59.96875 C 101.921875 -59.1875 102.34375 -58.453125 102.34375 -57.765625 C 102.34375 -57.078125 102.03125 -56.40625 101.40625 -55.75 C 100.789062 -55.101562 99.945312 -54.472656 98.875 -53.859375 C 97.800781 -53.242188 96.613281 -52.640625 95.3125 -52.046875 C 94.007812 -51.460938 92.691406 -50.878906 91.359375 -50.296875 C 90.023438 -49.710938 88.738281 -49.125 87.5 -48.53125 C 86.257812 -47.945312 85.21875 -47.363281 84.375 -46.78125 C 83.46875 -46.257812 82.585938 -46 81.734375 -46 C 80.628906 -46 79.34375 -46.613281 77.875 -47.84375 C 76.414062 -49.082031 75.097656 -50.890625 73.921875 -53.265625 C 72.753906 -55.648438 72.140625 -57.457031 72.078125 -58.6875 C 72.203125 -61.164062 74.085938 -63.363281 77.734375 -65.28125 C 81.378906 -67.207031 85.609375 -68.835938 90.421875 -70.171875 C 95.242188 -71.503906 99.539062 -72.523438 103.3125 -73.234375 C 107.09375 -73.953125 108.984375 -74.3125 108.984375 -74.3125 Z M 76.46875 -44.234375 C 76.46875 -44.234375 78.128906 -44.140625 81.453125 -43.953125 C 84.179688 -43.816406 86.945312 -43.425781 89.75 -42.78125 C 93.257812 -43.75 97.164062 -44.722656 101.46875 -45.703125 C 107.0625 -47.003906 112.007812 -47.851562 116.3125 -48.25 C 120.539062 -48.632812 124.054688 -49.003906 126.859375 -49.359375 C 129.660156 -49.722656 131.773438 -49.90625 133.203125 -49.90625 C 135.347656 -49.90625 137.546875 -49.609375 139.796875 -49.015625 C 142.046875 -48.429688 143.460938 -46.546875 144.046875 -43.359375 C 144.367188 -41.859375 144.53125 -40.296875 144.53125 -38.671875 C 144.53125 -37.367188 144.367188 -35.578125 144.046875 -33.296875 C 143.722656 -31.023438 142.289062 -28 139.75 -24.21875 C 138.445312 -22.457031 137.242188 -20.894531 136.140625 -19.53125 C 136.523438 -19.46875 136.914062 -19.40625 137.3125 -19.34375 C 138.875 -18.945312 139.800781 -17.898438 140.09375 -16.203125 C 140.382812 -14.515625 140.53125 -13.117188 140.53125 -12.015625 C 140.53125 -10.710938 140.332031 -9.097656 139.9375 -7.171875 C 139.550781 -5.253906 138.738281 -3.84375 137.5 -2.9375 C 133.007812 -3.125 128.8125 -3.21875 124.90625 -3.21875 C 114.226562 -3.21875 105.734375 -2.4375 99.421875 -0.875 C 99.160156 -0.550781 98.863281 -0.257812 98.53125 0 C 96.1875 2.082031 94.265625 3.316406 92.765625 3.703125 C 91.273438 4.097656 90.300781 4.296875 89.84375 4.296875 C 88.28125 4.296875 87.238281 3.414062 86.71875 1.65625 C 79.882812 -28.9375 76.46875 -44.234375 76.46875 -44.234375 Z M 101.953125 -16.40625 C 104.953125 -16.800781 108.4375 -17.191406 112.40625 -17.578125 C 113.90625 -19.535156 115.175781 -21.359375 116.21875 -23.046875 C 117.90625 -25.910156 119.140625 -28.238281 119.921875 -30.03125 C 120.703125 -31.820312 121.09375 -32.71875 121.09375 -32.71875 C 121.09375 -32.71875 118.457031 -32.257812 113.1875 -31.34375 C 108.238281 -30.5 103.648438 -29.847656 99.421875 -29.390625 C 99.867188 -27.179688 100.390625 -24.707031 100.984375 -21.96875 C 101.367188 -19.957031 101.691406 -18.101562 101.953125 -16.40625 Z M 101.953125 -16.40625 "/></g></g><g transform="translate(938.565244, 231.891935)"><g><path d="M 154.78125 -157.328125 C 154.78125 -157.328125 156.535156 -158.445312 160.046875 -160.6875 C 163.566406 -162.9375 167.148438 -164.890625 170.796875 -166.546875 C 174.441406 -168.210938 177.375 -169.046875 179.59375 -169.046875 C 180.375 -169.046875 181.085938 -168.945312 181.734375 -168.75 C 185.578125 -167.125 188.71875 -164.632812 191.15625 -161.28125 C 193.601562 -157.925781 194.828125 -155.273438 194.828125 -153.328125 C 194.828125 -152.671875 194.726562 -152.050781 194.53125 -151.46875 C 192.96875 -149.125 190.28125 -145.769531 186.46875 -141.40625 C 182.664062 -137.039062 180.765625 -134.859375 180.765625 -134.859375 C 180.765625 -134.859375 180.679688 -135.507812 180.515625 -136.8125 C 180.359375 -138.113281 179.867188 -139.644531 179.046875 -141.40625 C 178.234375 -143.164062 176.851562 -144.757812 174.90625 -146.1875 C 171.644531 -148.34375 167.472656 -150.738281 162.390625 -153.375 C 157.316406 -156.007812 154.78125 -157.328125 154.78125 -157.328125 Z M 68.5625 -107.90625 C 68.5625 -107.90625 68.867188 -108.066406 69.484375 -108.390625 C 70.097656 -108.722656 72.519531 -109.523438 76.75 -110.796875 C 80.988281 -112.066406 88.25 -114.035156 98.53125 -116.703125 C 109.40625 -119.304688 120.898438 -121.710938 133.015625 -123.921875 C 132.617188 -126.984375 132.320312 -129.882812 132.125 -132.625 C 131.15625 -142.707031 130.570312 -148.46875 130.375 -149.90625 C 130.570312 -154.132812 131.921875 -156.457031 134.421875 -156.875 C 136.929688 -157.300781 138.738281 -157.515625 139.84375 -157.515625 C 142.644531 -157.515625 145.753906 -156.78125 149.171875 -155.3125 C 152.585938 -153.851562 154.425781 -151.660156 154.6875 -148.734375 C 154.6875 -148.671875 154.6875 -148.570312 154.6875 -148.4375 C 154.6875 -145.3125 155.597656 -138.507812 157.421875 -128.03125 C 176.628906 -130.894531 186.234375 -132.328125 186.234375 -132.328125 C 186.359375 -132.328125 186.519531 -132.328125 186.71875 -132.328125 C 188.9375 -132.328125 191.296875 -130.957031 193.796875 -128.21875 C 196.304688 -125.488281 197.9375 -122.769531 198.6875 -120.0625 C 199.4375 -117.363281 199.8125 -115.394531 199.8125 -114.15625 C 199.8125 -111.625 199.0625 -109.21875 197.5625 -106.9375 C 195.21875 -103.875 192.515625 -102.179688 189.453125 -101.859375 C 186.390625 -101.535156 183.363281 -101.375 180.375 -101.375 C 178.351562 -101.375 176.171875 -101.4375 173.828125 -101.5625 C 173.046875 -101.5625 172.234375 -101.5625 171.390625 -101.5625 C 168.003906 -101.5625 164.257812 -101.367188 160.15625 -100.984375 C 161.59375 -91.671875 163.351562 -81.675781 165.4375 -71 C 166.539062 -65.394531 167.710938 -59.894531 168.953125 -54.5 C 169.796875 -56.90625 170.507812 -59.378906 171.09375 -61.921875 C 171.9375 -65.691406 172.359375 -69.691406 172.359375 -73.921875 C 172.359375 -78.285156 171.90625 -82.84375 171 -87.59375 C 171 -87.59375 172.984375 -87.363281 176.953125 -86.90625 C 180.921875 -86.457031 184.988281 -85.582031 189.15625 -84.28125 C 193.320312 -82.976562 196.023438 -81.023438 197.265625 -78.421875 C 197.585938 -77.503906 197.75 -76.300781 197.75 -74.8125 C 197.75 -71.351562 196.675781 -65.488281 194.53125 -57.21875 C 192.382812 -48.957031 187.894531 -38.867188 181.0625 -26.953125 C 180.144531 -25.328125 179.164062 -23.734375 178.125 -22.171875 C 178.445312 -21.191406 178.773438 -20.25 179.109375 -19.34375 C 180.410156 -15.238281 182.082031 -11.570312 184.125 -8.34375 C 186.175781 -5.125 187.9375 -2.941406 189.40625 -1.796875 C 190.875 -0.660156 192 -0.09375 192.78125 -0.09375 C 193.425781 -0.09375 193.976562 -0.390625 194.4375 -0.984375 C 196.257812 -3.710938 199.332031 -8.410156 203.65625 -15.078125 C 207.988281 -21.753906 210.484375 -25.320312 211.140625 -25.78125 C 211.203125 -24.675781 211.6875 -19.515625 212.59375 -10.296875 C 213.507812 -1.085938 215.109375 7.78125 217.390625 16.3125 C 218.035156 17.550781 218.359375 18.722656 218.359375 19.828125 C 218.359375 21.972656 216.796875 24.070312 213.671875 26.125 C 210.546875 28.175781 207.304688 29.234375 203.953125 29.296875 C 200.597656 29.359375 198.828125 29.390625 198.640625 29.390625 C 192.316406 29.390625 186.03125 27.695312 179.78125 24.3125 C 172.488281 18.457031 166.175781 9.863281 160.84375 -1.46875 C 158.4375 0.8125 155.863281 3.0625 153.125 5.28125 C 147.269531 9.445312 140.972656 12.113281 134.234375 13.28125 C 127.492188 14.457031 121.648438 15.046875 116.703125 15.046875 C 115.921875 15.046875 113.96875 14.992188 110.84375 14.890625 C 107.71875 14.796875 106.15625 14.75 106.15625 14.75 C 106.15625 14.75 108.367188 13.59375 112.796875 11.28125 C 117.222656 8.96875 122.523438 5.398438 128.703125 0.578125 C 134.890625 -4.234375 140.914062 -10.351562 146.78125 -17.78125 C 148.539062 -20.050781 150.234375 -22.328125 151.859375 -24.609375 C 149.378906 -32.222656 147.195312 -40.234375 145.3125 -48.640625 C 144.53125 -51.828125 143.816406 -55.015625 143.171875 -58.203125 C 143.097656 -55.660156 142.898438 -52.375 142.578125 -48.34375 C 141.929688 -40.269531 140.628906 -32.519531 138.671875 -25.09375 C 136.847656 -18.257812 134.84375 -12.742188 132.65625 -8.546875 C 130.476562 -4.347656 127.40625 -1.207031 123.4375 0.875 C 122.59375 1.207031 121.710938 1.375 120.796875 1.375 C 118.847656 1.375 116.632812 0.347656 114.15625 -1.703125 C 111.6875 -3.753906 109.425781 -6.3125 107.375 -9.375 C 105.320312 -12.4375 104.296875 -13.96875 104.296875 -13.96875 C 104.296875 -13.96875 105.597656 -14.082031 108.203125 -14.3125 C 110.804688 -14.539062 112.859375 -15.140625 114.359375 -16.109375 C 115.984375 -18.523438 117.394531 -22.53125 118.59375 -28.125 C 119.800781 -33.726562 120.40625 -39.847656 120.40625 -46.484375 C 115.71875 -46.285156 111.78125 -46.09375 108.59375 -45.90625 C 107.945312 -40.5 107.066406 -34.960938 105.953125 -29.296875 C 103.609375 -17.453125 99.832031 -5.992188 94.625 5.078125 C 91.570312 10.941406 87.585938 15.222656 82.671875 17.921875 C 77.753906 20.617188 73.226562 22.226562 69.09375 22.75 C 64.957031 23.269531 61.585938 23.53125 58.984375 23.53125 C 57.421875 23.53125 55.4375 23.398438 53.03125 23.140625 C 50.625 22.878906 49.421875 22.75 49.421875 22.75 C 49.421875 22.75 50.960938 20.972656 54.046875 17.421875 C 57.140625 13.878906 60.640625 9.0625 64.546875 2.96875 C 68.453125 -3.113281 71.835938 -10.125 74.703125 -18.0625 C 76.335938 -22.882812 78.082031 -29.265625 79.9375 -37.203125 C 81.789062 -45.148438 83.171875 -53.613281 84.078125 -62.59375 C 84.410156 -66.175781 84.578125 -69.691406 84.578125 -73.140625 C 84.578125 -78.160156 84.21875 -83.015625 83.5 -87.703125 C 82.457031 -87.960938 81.476562 -88.351562 80.5625 -88.875 C 77.375 -90.625 74.898438 -92.976562 73.140625 -95.9375 C 71.390625 -98.90625 70.1875 -101.640625 69.53125 -104.140625 C 68.882812 -106.648438 68.5625 -107.90625 68.5625 -107.90625 Z M 26.46875 -128.515625 C 26.46875 -128.054688 27.753906 -127.535156 30.328125 -126.953125 C 32.898438 -126.367188 35.878906 -126.078125 39.265625 -126.078125 C 40.890625 -126.078125 42.675781 -126.140625 44.625 -126.265625 C 44.882812 -126.265625 45.113281 -126.265625 45.3125 -126.265625 C 48.832031 -126.265625 51.335938 -125.335938 52.828125 -123.484375 C 54.328125 -121.628906 55.140625 -119.804688 55.265625 -118.015625 C 55.398438 -116.222656 55.46875 -114.875 55.46875 -113.96875 C 55.46875 -113.25 55.4375 -112.660156 55.375 -112.203125 C 55.113281 -111.296875 54.5625 -107.847656 53.71875 -101.859375 C 53.382812 -99.710938 53.125 -96.847656 52.9375 -93.265625 C 53.195312 -93.390625 53.421875 -93.519531 53.609375 -93.65625 C 56.023438 -95.082031 58.925781 -95.796875 62.3125 -95.796875 C 62.957031 -95.796875 63.640625 -95.765625 64.359375 -95.703125 C 66.117188 -95.378906 67.757812 -94.4375 69.28125 -92.875 C 70.8125 -91.3125 72.144531 -89.390625 73.28125 -87.109375 C 74.425781 -84.828125 75.320312 -82.5 75.96875 -80.125 C 76.625 -77.75 76.96875 -76.039062 77 -75 C 77.03125 -73.957031 77.046875 -73.335938 77.046875 -73.140625 C 77.046875 -71.515625 76.753906 -70.3125 76.171875 -69.53125 C 74.285156 -67.125 72.578125 -65.882812 71.046875 -65.8125 C 69.515625 -65.75 68.257812 -65.71875 67.28125 -65.71875 C 65.394531 -65.71875 63.148438 -65.785156 60.546875 -65.921875 C 60.285156 -65.921875 60.023438 -65.921875 59.765625 -65.921875 C 57.742188 -65.921875 55.335938 -65.691406 52.546875 -65.234375 C 52.546875 -62.503906 52.546875 -59.898438 52.546875 -57.421875 C 52.546875 -52.535156 52.507812 -48.269531 52.4375 -44.625 C 53.351562 -45.082031 54.265625 -45.507812 55.171875 -45.90625 C 63.054688 -49.476562 69.519531 -52.238281 74.5625 -54.1875 C 79.601562 -56.144531 82.125 -57.125 82.125 -57.125 C 82.125 -57.125 80.738281 -54.210938 77.96875 -48.390625 C 75.207031 -42.566406 73.015625 -37.472656 71.390625 -33.109375 C 70.472656 -30.628906 68.726562 -28.671875 66.15625 -27.234375 C 63.59375 -25.804688 60.535156 -24.164062 56.984375 -22.3125 C 53.429688 -20.457031 49.738281 -17.644531 45.90625 -13.875 C 42.0625 -9.894531 37.988281 -6.359375 33.6875 -3.265625 C 29.394531 -0.171875 26.0625 1.679688 23.6875 2.296875 C 21.3125 2.910156 19.664062 3.21875 18.75 3.21875 C 16.40625 3.21875 14.519531 2.34375 13.09375 0.59375 C 9.894531 -3.382812 6.328125 -7.128906 2.390625 -10.640625 C -1.546875 -14.160156 -3.515625 -15.921875 -3.515625 -15.921875 C -0.910156 -18.984375 1.140625 -20.96875 2.640625 -21.875 C 4.140625 -22.789062 5.78125 -23.410156 7.5625 -23.734375 C 9.351562 -24.054688 11.976562 -24.835938 15.4375 -26.078125 C 18.75 -27.242188 23.566406 -29.554688 29.890625 -33.015625 C 29.171875 -37.242188 28.679688 -42.15625 28.421875 -47.75 C 28.359375 -49.769531 28.328125 -51.890625 28.328125 -54.109375 C 28.328125 -55.210938 28.328125 -56.316406 28.328125 -57.421875 C 25.265625 -56.054688 22.039062 -54.492188 18.65625 -52.734375 C 18.070312 -52.472656 17.453125 -52.34375 16.796875 -52.34375 C 15.296875 -52.34375 13.601562 -53.269531 11.71875 -55.125 C 9.832031 -56.976562 7.941406 -59.628906 6.046875 -63.078125 C 4.160156 -66.535156 2.613281 -69.679688 1.40625 -72.515625 C 0.207031 -75.347656 -0.390625 -76.765625 -0.390625 -76.765625 C -0.390625 -76.765625 1.984375 -77.203125 6.734375 -78.078125 C 11.492188 -78.953125 17.191406 -80.238281 23.828125 -81.9375 C 25.523438 -82.394531 27.1875 -82.847656 28.8125 -83.296875 C 28.675781 -90.140625 28.382812 -97.597656 27.9375 -105.671875 C 26.957031 -120.898438 26.46875 -128.515625 26.46875 -128.515625 Z M 109.96875 -67.484375 C 114.0625 -68.585938 118.550781 -69.300781 123.4375 -69.625 C 124.476562 -69.757812 125.519531 -69.828125 126.5625 -69.828125 C 128.78125 -69.828125 131.09375 -69.515625 133.5 -68.890625 C 135.90625 -68.273438 138.019531 -67.445312 139.84375 -66.40625 C 140.625 -65.882812 141.242188 -65.394531 141.703125 -64.9375 C 139.679688 -75.164062 137.988281 -85.191406 136.625 -95.015625 C 136.488281 -95.796875 136.390625 -96.578125 136.328125 -97.359375 C 126.492188 -95.609375 117.21875 -93.722656 108.5 -91.703125 C 108.625 -90.859375 108.785156 -89.945312 108.984375 -88.96875 C 109.640625 -83.820312 109.96875 -77.832031 109.96875 -71 C 109.96875 -69.820312 109.96875 -68.648438 109.96875 -67.484375 Z M 109.96875 -67.484375 "/></g></g></g><g fill="#000000" fill-opacity="1"><g transform="translate(726.086871, 234.806236)"><g><path d="M 34.671875 -90.828125 C 34.671875 -90.828125 35.4375 -90.972656 36.96875 -91.265625 C 38.5 -91.554688 39.992188 -91.71875 41.453125 -91.75 C 42.921875 -91.78125 43.6875 -91.796875 43.75 -91.796875 C 46.613281 -91.796875 52.113281 -90.984375 60.25 -89.359375 C 59.664062 -89.554688 59.082031 -89.65625 58.5 -89.65625 C 57.195312 -89.65625 55.894531 -89.132812 54.59375 -88.09375 C 58.363281 -88.9375 63.832031 -90.171875 71 -91.796875 C 71.519531 -91.929688 72.070312 -92.0625 72.65625 -92.1875 C 70.894531 -94.007812 69.300781 -95.863281 67.875 -97.75 C 66.050781 -100.09375 64.941406 -101.851562 64.546875 -103.03125 C 64.421875 -103.675781 64.359375 -104.296875 64.359375 -104.890625 C 64.359375 -107.234375 65.460938 -109.445312 67.671875 -111.53125 C 68.128906 -111.914062 68.585938 -112.304688 69.046875 -112.703125 C 59.992188 -110.285156 52.632812 -108.425781 46.96875 -107.125 C 45.34375 -106.800781 43.75 -106.640625 42.1875 -106.640625 C 39.195312 -106.640625 35.957031 -107.351562 32.46875 -108.78125 C 28.988281 -110.21875 25.632812 -112.285156 22.40625 -114.984375 C 19.1875 -117.691406 16.648438 -120.179688 14.796875 -122.453125 C 12.941406 -124.734375 12.015625 -125.875 12.015625 -125.875 C 12.015625 -125.875 14.648438 -126.625 19.921875 -128.125 C 25.191406 -129.625 33.785156 -131.609375 45.703125 -134.078125 C 57.296875 -136.421875 72.691406 -139.0625 91.890625 -142 C 93.066406 -144.082031 94.207031 -146.6875 95.3125 -149.8125 C 96.351562 -152.863281 96.875 -156.148438 96.875 -159.671875 C 96.875 -160.054688 96.84375 -161.335938 96.78125 -163.515625 C 96.71875 -165.703125 95.316406 -168.71875 92.578125 -172.5625 C 92.578125 -172.5625 95.097656 -172.523438 100.140625 -172.453125 C 105.191406 -172.390625 110.335938 -172.066406 115.578125 -171.484375 C 120.816406 -170.898438 124.117188 -169.828125 125.484375 -168.265625 C 126.660156 -166.179688 127.25 -163.769531 127.25 -161.03125 C 127.25 -160.25 127.117188 -158.71875 126.859375 -156.4375 C 126.597656 -154.164062 125.785156 -152.28125 124.421875 -150.78125 C 122.078125 -149.414062 116.28125 -147.171875 107.03125 -144.046875 C 121.09375 -145.804688 133.59375 -147.039062 144.53125 -147.75 C 156.707031 -148.46875 166.570312 -148.828125 174.125 -148.828125 C 175.625 -148.828125 178.679688 -148.773438 183.296875 -148.671875 C 187.921875 -148.578125 190.234375 -148.53125 190.234375 -148.53125 C 192.773438 -148.207031 195.203125 -146.207031 197.515625 -142.53125 C 199.828125 -138.851562 201.289062 -135.546875 201.90625 -132.609375 C 202.519531 -129.679688 202.828125 -127.566406 202.828125 -126.265625 C 202.828125 -124.117188 202.34375 -122.394531 201.375 -121.09375 C 200.070312 -119.40625 198.945312 -118.539062 198 -118.5 C 197.050781 -118.46875 196.546875 -118.453125 196.484375 -118.453125 C 194.535156 -118.453125 190.453125 -118.925781 184.234375 -119.875 C 178.015625 -120.820312 167.582031 -121.878906 152.9375 -123.046875 C 147.988281 -123.367188 143.132812 -123.53125 138.375 -123.53125 C 138.832031 -123.269531 139.320312 -123.046875 139.84375 -122.859375 C 142.125 -121.816406 144.078125 -120.691406 145.703125 -119.484375 C 147.328125 -118.273438 148.269531 -117.054688 148.53125 -115.828125 C 148.53125 -115.429688 148.53125 -115.039062 148.53125 -114.65625 C 148.53125 -111.789062 147.914062 -108.46875 146.6875 -104.6875 C 147.851562 -104.75 148.957031 -104.78125 150 -104.78125 C 152.082031 -104.78125 153.9375 -104.6875 155.5625 -104.5 C 165.195312 -102.675781 172.519531 -100.148438 177.53125 -96.921875 C 182.550781 -93.703125 185.8125 -91.28125 187.3125 -89.65625 C 188.21875 -88.875 188.671875 -87.734375 188.671875 -86.234375 C 188.671875 -86.097656 188.640625 -85.523438 188.578125 -84.515625 C 188.515625 -83.515625 188.222656 -81.253906 187.703125 -77.734375 C 187.179688 -74.222656 186.882812 -69.472656 186.8125 -63.484375 C 186.882812 -58.660156 187.03125 -52.550781 187.25 -45.15625 C 187.476562 -37.769531 187.59375 -31.378906 187.59375 -25.984375 C 187.59375 -21.097656 187.492188 -14.695312 187.296875 -6.78125 C 187.109375 1.125 186.195312 9.160156 184.5625 17.328125 C 182.9375 25.503906 180.207031 30.503906 176.375 32.328125 C 175 32.785156 173.566406 33.015625 172.078125 33.015625 C 169.273438 33.015625 165.90625 31.9375 161.96875 29.78125 C 158.03125 27.632812 153.878906 24.460938 149.515625 20.265625 C 145.148438 16.066406 141.535156 12.222656 138.671875 8.734375 C 135.804688 5.253906 134.375 3.515625 134.375 3.515625 C 134.375 3.515625 135.96875 3.5625 139.15625 3.65625 C 142.351562 3.757812 144.34375 3.8125 145.125 3.8125 C 149.351562 3.8125 152.3125 3.390625 154 2.546875 C 155.5 -8.328125 156.265625 -18.320312 156.296875 -27.4375 C 156.328125 -36.550781 156.34375 -41.46875 156.34375 -42.1875 C 156.34375 -58.53125 155.628906 -70.707031 154.203125 -78.71875 C 151.335938 -79.5 147.398438 -79.890625 142.390625 -79.890625 C 138.285156 -79.890625 131.738281 -79.476562 122.75 -78.65625 C 113.769531 -77.84375 103.453125 -76.429688 91.796875 -74.421875 C 81.515625 -72.660156 74.582031 -71.160156 71 -69.921875 C 70.863281 -69.335938 70.765625 -68.71875 70.703125 -68.0625 C 70.117188 -65.070312 69.660156 -60.890625 69.328125 -55.515625 C 69.003906 -50.148438 68.8125 -43.265625 68.75 -34.859375 C 68.882812 -26.398438 69.128906 -19.335938 69.484375 -13.671875 C 69.835938 -8.003906 70.015625 -3.476562 70.015625 -0.09375 C 70.015625 2.769531 69.867188 6.171875 69.578125 10.109375 C 69.285156 14.046875 67.867188 17.316406 65.328125 19.921875 C 59.992188 24.929688 57.328125 27.4375 57.328125 27.4375 C 57.328125 27.4375 55.988281 26.523438 53.3125 24.703125 C 50.644531 22.878906 48.007812 20.257812 45.40625 16.84375 C 42.800781 13.425781 41.367188 9.34375 41.109375 4.59375 C 41.242188 -2.4375 41.472656 -9.484375 41.796875 -16.546875 C 42.117188 -23.617188 42.28125 -28.679688 42.28125 -31.734375 C 42.28125 -41.503906 41.628906 -52.929688 40.328125 -66.015625 C 39.359375 -73.890625 38.171875 -79.992188 36.765625 -84.328125 C 35.367188 -88.660156 34.671875 -90.828125 34.671875 -90.828125 Z M 93.75 -96.578125 C 101.957031 -98.210938 110.390625 -99.773438 119.046875 -101.265625 C 119.171875 -101.265625 119.300781 -101.300781 119.4375 -101.375 C 119.894531 -102.019531 120.347656 -102.765625 120.796875 -103.609375 C 122.492188 -106.671875 123.832031 -110.316406 124.8125 -114.546875 C 125.332031 -116.628906 125.59375 -118.78125 125.59375 -121 C 125.59375 -121.644531 125.554688 -122.328125 125.484375 -123.046875 C 120.148438 -122.722656 114.878906 -122.171875 109.671875 -121.390625 C 102.960938 -120.347656 96.582031 -119.207031 90.53125 -117.96875 C 89.75 -116.082031 89.160156 -114.066406 88.765625 -111.921875 C 88.640625 -111.328125 88.578125 -110.738281 88.578125 -110.15625 C 88.578125 -107.875 89.519531 -105.890625 91.40625 -104.203125 C 93.425781 -102.578125 94.4375 -100.914062 94.4375 -99.21875 C 94.4375 -98.894531 94.40625 -98.601562 94.34375 -98.34375 C 94.207031 -97.757812 94.007812 -97.171875 93.75 -96.578125 Z M 115.046875 -77.640625 C 115.046875 -77.640625 116.769531 -77.28125 120.21875 -76.5625 C 123.664062 -75.84375 127.632812 -74.894531 132.125 -73.71875 C 136.625 -72.550781 140.644531 -71.300781 144.1875 -69.96875 C 147.738281 -68.632812 149.773438 -67.316406 150.296875 -66.015625 C 150.878906 -64.328125 151.171875 -62.601562 151.171875 -60.84375 C 151.171875 -59.800781 150.988281 -58.300781 150.625 -56.34375 C 150.269531 -54.394531 148.175781 -53.09375 144.34375 -52.4375 C 144.007812 -52.375 143.648438 -52.34375 143.265625 -52.34375 C 140.660156 -52.34375 137.351562 -53.1875 133.34375 -54.875 C 129.34375 -56.570312 125.664062 -58.640625 122.3125 -61.078125 C 118.957031 -63.523438 117.25 -65.691406 117.1875 -67.578125 C 117.1875 -70.316406 116.828125 -72.675781 116.109375 -74.65625 C 115.398438 -76.644531 115.046875 -77.640625 115.046875 -77.640625 Z M 108.984375 -74.3125 C 108.984375 -74.3125 107.910156 -73.484375 105.765625 -71.828125 C 103.617188 -70.171875 102.054688 -68.539062 101.078125 -66.9375 C 100.097656 -65.34375 99.609375 -64.09375 99.609375 -63.1875 C 99.609375 -62.082031 100.097656 -61.007812 101.078125 -59.96875 C 101.921875 -59.1875 102.34375 -58.453125 102.34375 -57.765625 C 102.34375 -57.078125 102.03125 -56.40625 101.40625 -55.75 C 100.789062 -55.101562 99.945312 -54.472656 98.875 -53.859375 C 97.800781 -53.242188 96.613281 -52.640625 95.3125 -52.046875 C 94.007812 -51.460938 92.691406 -50.878906 91.359375 -50.296875 C 90.023438 -49.710938 88.738281 -49.125 87.5 -48.53125 C 86.257812 -47.945312 85.21875 -47.363281 84.375 -46.78125 C 83.46875 -46.257812 82.585938 -46 81.734375 -46 C 80.628906 -46 79.34375 -46.613281 77.875 -47.84375 C 76.414062 -49.082031 75.097656 -50.890625 73.921875 -53.265625 C 72.753906 -55.648438 72.140625 -57.457031 72.078125 -58.6875 C 72.203125 -61.164062 74.085938 -63.363281 77.734375 -65.28125 C 81.378906 -67.207031 85.609375 -68.835938 90.421875 -70.171875 C 95.242188 -71.503906 99.539062 -72.523438 103.3125 -73.234375 C 107.09375 -73.953125 108.984375 -74.3125 108.984375 -74.3125 Z M 76.46875 -44.234375 C 76.46875 -44.234375 78.128906 -44.140625 81.453125 -43.953125 C 84.179688 -43.816406 86.945312 -43.425781 89.75 -42.78125 C 93.257812 -43.75 97.164062 -44.722656 101.46875 -45.703125 C 107.0625 -47.003906 112.007812 -47.851562 116.3125 -48.25 C 120.539062 -48.632812 124.054688 -49.003906 126.859375 -49.359375 C 129.660156 -49.722656 131.773438 -49.90625 133.203125 -49.90625 C 135.347656 -49.90625 137.546875 -49.609375 139.796875 -49.015625 C 142.046875 -48.429688 143.460938 -46.546875 144.046875 -43.359375 C 144.367188 -41.859375 144.53125 -40.296875 144.53125 -38.671875 C 144.53125 -37.367188 144.367188 -35.578125 144.046875 -33.296875 C 143.722656 -31.023438 142.289062 -28 139.75 -24.21875 C 138.445312 -22.457031 137.242188 -20.894531 136.140625 -19.53125 C 136.523438 -19.46875 136.914062 -19.40625 137.3125 -19.34375 C 138.875 -18.945312 139.800781 -17.898438 140.09375 -16.203125 C 140.382812 -14.515625 140.53125 -13.117188 140.53125 -12.015625 C 140.53125 -10.710938 140.332031 -9.097656 139.9375 -7.171875 C 139.550781 -5.253906 138.738281 -3.84375 137.5 -2.9375 C 133.007812 -3.125 128.8125 -3.21875 124.90625 -3.21875 C 114.226562 -3.21875 105.734375 -2.4375 99.421875 -0.875 C 99.160156 -0.550781 98.863281 -0.257812 98.53125 0 C 96.1875 2.082031 94.265625 3.316406 92.765625 3.703125 C 91.273438 4.097656 90.300781 4.296875 89.84375 4.296875 C 88.28125 4.296875 87.238281 3.414062 86.71875 1.65625 C 79.882812 -28.9375 76.46875 -44.234375 76.46875 -44.234375 Z M 101.953125 -16.40625 C 104.953125 -16.800781 108.4375 -17.191406 112.40625 -17.578125 C 113.90625 -19.535156 115.175781 -21.359375 116.21875 -23.046875 C 117.90625 -25.910156 119.140625 -28.238281 119.921875 -30.03125 C 120.703125 -31.820312 121.09375 -32.71875 121.09375 -32.71875 C 121.09375 -32.71875 118.457031 -32.257812 113.1875 -31.34375 C 108.238281 -30.5 103.648438 -29.847656 99.421875 -29.390625 C 99.867188 -27.179688 100.390625 -24.707031 100.984375 -21.96875 C 101.367188 -19.957031 101.691406 -18.101562 101.953125 -16.40625 Z M 101.953125 -16.40625 "/></g></g><g transform="translate(940.925236, 234.806236)"><g><path d="M 154.78125 -157.328125 C 154.78125 -157.328125 156.535156 -158.445312 160.046875 -160.6875 C 163.566406 -162.9375 167.148438 -164.890625 170.796875 -166.546875 C 174.441406 -168.210938 177.375 -169.046875 179.59375 -169.046875 C 180.375 -169.046875 181.085938 -168.945312 181.734375 -168.75 C 185.578125 -167.125 188.71875 -164.632812 191.15625 -161.28125 C 193.601562 -157.925781 194.828125 -155.273438 194.828125 -153.328125 C 194.828125 -152.671875 194.726562 -152.050781 194.53125 -151.46875 C 192.96875 -149.125 190.28125 -145.769531 186.46875 -141.40625 C 182.664062 -137.039062 180.765625 -134.859375 180.765625 -134.859375 C 180.765625 -134.859375 180.679688 -135.507812 180.515625 -136.8125 C 180.359375 -138.113281 179.867188 -139.644531 179.046875 -141.40625 C 178.234375 -143.164062 176.851562 -144.757812 174.90625 -146.1875 C 171.644531 -148.34375 167.472656 -150.738281 162.390625 -153.375 C 157.316406 -156.007812 154.78125 -157.328125 154.78125 -157.328125 Z M 68.5625 -107.90625 C 68.5625 -107.90625 68.867188 -108.066406 69.484375 -108.390625 C 70.097656 -108.722656 72.519531 -109.523438 76.75 -110.796875 C 80.988281 -112.066406 88.25 -114.035156 98.53125 -116.703125 C 109.40625 -119.304688 120.898438 -121.710938 133.015625 -123.921875 C 132.617188 -126.984375 132.320312 -129.882812 132.125 -132.625 C 131.15625 -142.707031 130.570312 -148.46875 130.375 -149.90625 C 130.570312 -154.132812 131.921875 -156.457031 134.421875 -156.875 C 136.929688 -157.300781 138.738281 -157.515625 139.84375 -157.515625 C 142.644531 -157.515625 145.753906 -156.78125 149.171875 -155.3125 C 152.585938 -153.851562 154.425781 -151.660156 154.6875 -148.734375 C 154.6875 -148.671875 154.6875 -148.570312 154.6875 -148.4375 C 154.6875 -145.3125 155.597656 -138.507812 157.421875 -128.03125 C 176.628906 -130.894531 186.234375 -132.328125 186.234375 -132.328125 C 186.359375 -132.328125 186.519531 -132.328125 186.71875 -132.328125 C 188.9375 -132.328125 191.296875 -130.957031 193.796875 -128.21875 C 196.304688 -125.488281 197.9375 -122.769531 198.6875 -120.0625 C 199.4375 -117.363281 199.8125 -115.394531 199.8125 -114.15625 C 199.8125 -111.625 199.0625 -109.21875 197.5625 -106.9375 C 195.21875 -103.875 192.515625 -102.179688 189.453125 -101.859375 C 186.390625 -101.535156 183.363281 -101.375 180.375 -101.375 C 178.351562 -101.375 176.171875 -101.4375 173.828125 -101.5625 C 173.046875 -101.5625 172.234375 -101.5625 171.390625 -101.5625 C 168.003906 -101.5625 164.257812 -101.367188 160.15625 -100.984375 C 161.59375 -91.671875 163.351562 -81.675781 165.4375 -71 C 166.539062 -65.394531 167.710938 -59.894531 168.953125 -54.5 C 169.796875 -56.90625 170.507812 -59.378906 171.09375 -61.921875 C 171.9375 -65.691406 172.359375 -69.691406 172.359375 -73.921875 C 172.359375 -78.285156 171.90625 -82.84375 171 -87.59375 C 171 -87.59375 172.984375 -87.363281 176.953125 -86.90625 C 180.921875 -86.457031 184.988281 -85.582031 189.15625 -84.28125 C 193.320312 -82.976562 196.023438 -81.023438 197.265625 -78.421875 C 197.585938 -77.503906 197.75 -76.300781 197.75 -74.8125 C 197.75 -71.351562 196.675781 -65.488281 194.53125 -57.21875 C 192.382812 -48.957031 187.894531 -38.867188 181.0625 -26.953125 C 180.144531 -25.328125 179.164062 -23.734375 178.125 -22.171875 C 178.445312 -21.191406 178.773438 -20.25 179.109375 -19.34375 C 180.410156 -15.238281 182.082031 -11.570312 184.125 -8.34375 C 186.175781 -5.125 187.9375 -2.941406 189.40625 -1.796875 C 190.875 -0.660156 192 -0.09375 192.78125 -0.09375 C 193.425781 -0.09375 193.976562 -0.390625 194.4375 -0.984375 C 196.257812 -3.710938 199.332031 -8.410156 203.65625 -15.078125 C 207.988281 -21.753906 210.484375 -25.320312 211.140625 -25.78125 C 211.203125 -24.675781 211.6875 -19.515625 212.59375 -10.296875 C 213.507812 -1.085938 215.109375 7.78125 217.390625 16.3125 C 218.035156 17.550781 218.359375 18.722656 218.359375 19.828125 C 218.359375 21.972656 216.796875 24.070312 213.671875 26.125 C 210.546875 28.175781 207.304688 29.234375 203.953125 29.296875 C 200.597656 29.359375 198.828125 29.390625 198.640625 29.390625 C 192.316406 29.390625 186.03125 27.695312 179.78125 24.3125 C 172.488281 18.457031 166.175781 9.863281 160.84375 -1.46875 C 158.4375 0.8125 155.863281 3.0625 153.125 5.28125 C 147.269531 9.445312 140.972656 12.113281 134.234375 13.28125 C 127.492188 14.457031 121.648438 15.046875 116.703125 15.046875 C 115.921875 15.046875 113.96875 14.992188 110.84375 14.890625 C 107.71875 14.796875 106.15625 14.75 106.15625 14.75 C 106.15625 14.75 108.367188 13.59375 112.796875 11.28125 C 117.222656 8.96875 122.523438 5.398438 128.703125 0.578125 C 134.890625 -4.234375 140.914062 -10.351562 146.78125 -17.78125 C 148.539062 -20.050781 150.234375 -22.328125 151.859375 -24.609375 C 149.378906 -32.222656 147.195312 -40.234375 145.3125 -48.640625 C 144.53125 -51.828125 143.816406 -55.015625 143.171875 -58.203125 C 143.097656 -55.660156 142.898438 -52.375 142.578125 -48.34375 C 141.929688 -40.269531 140.628906 -32.519531 138.671875 -25.09375 C 136.847656 -18.257812 134.84375 -12.742188 132.65625 -8.546875 C 130.476562 -4.347656 127.40625 -1.207031 123.4375 0.875 C 122.59375 1.207031 121.710938 1.375 120.796875 1.375 C 118.847656 1.375 116.632812 0.347656 114.15625 -1.703125 C 111.6875 -3.753906 109.425781 -6.3125 107.375 -9.375 C 105.320312 -12.4375 104.296875 -13.96875 104.296875 -13.96875 C 104.296875 -13.96875 105.597656 -14.082031 108.203125 -14.3125 C 110.804688 -14.539062 112.859375 -15.140625 114.359375 -16.109375 C 115.984375 -18.523438 117.394531 -22.53125 118.59375 -28.125 C 119.800781 -33.726562 120.40625 -39.847656 120.40625 -46.484375 C 115.71875 -46.285156 111.78125 -46.09375 108.59375 -45.90625 C 107.945312 -40.5 107.066406 -34.960938 105.953125 -29.296875 C 103.609375 -17.453125 99.832031 -5.992188 94.625 5.078125 C 91.570312 10.941406 87.585938 15.222656 82.671875 17.921875 C 77.753906 20.617188 73.226562 22.226562 69.09375 22.75 C 64.957031 23.269531 61.585938 23.53125 58.984375 23.53125 C 57.421875 23.53125 55.4375 23.398438 53.03125 23.140625 C 50.625 22.878906 49.421875 22.75 49.421875 22.75 C 49.421875 22.75 50.960938 20.972656 54.046875 17.421875 C 57.140625 13.878906 60.640625 9.0625 64.546875 2.96875 C 68.453125 -3.113281 71.835938 -10.125 74.703125 -18.0625 C 76.335938 -22.882812 78.082031 -29.265625 79.9375 -37.203125 C 81.789062 -45.148438 83.171875 -53.613281 84.078125 -62.59375 C 84.410156 -66.175781 84.578125 -69.691406 84.578125 -73.140625 C 84.578125 -78.160156 84.21875 -83.015625 83.5 -87.703125 C 82.457031 -87.960938 81.476562 -88.351562 80.5625 -88.875 C 77.375 -90.625 74.898438 -92.976562 73.140625 -95.9375 C 71.390625 -98.90625 70.1875 -101.640625 69.53125 -104.140625 C 68.882812 -106.648438 68.5625 -107.90625 68.5625 -107.90625 Z M 26.46875 -128.515625 C 26.46875 -128.054688 27.753906 -127.535156 30.328125 -126.953125 C 32.898438 -126.367188 35.878906 -126.078125 39.265625 -126.078125 C 40.890625 -126.078125 42.675781 -126.140625 44.625 -126.265625 C 44.882812 -126.265625 45.113281 -126.265625 45.3125 -126.265625 C 48.832031 -126.265625 51.335938 -125.335938 52.828125 -123.484375 C 54.328125 -121.628906 55.140625 -119.804688 55.265625 -118.015625 C 55.398438 -116.222656 55.46875 -114.875 55.46875 -113.96875 C 55.46875 -113.25 55.4375 -112.660156 55.375 -112.203125 C 55.113281 -111.296875 54.5625 -107.847656 53.71875 -101.859375 C 53.382812 -99.710938 53.125 -96.847656 52.9375 -93.265625 C 53.195312 -93.390625 53.421875 -93.519531 53.609375 -93.65625 C 56.023438 -95.082031 58.925781 -95.796875 62.3125 -95.796875 C 62.957031 -95.796875 63.640625 -95.765625 64.359375 -95.703125 C 66.117188 -95.378906 67.757812 -94.4375 69.28125 -92.875 C 70.8125 -91.3125 72.144531 -89.390625 73.28125 -87.109375 C 74.425781 -84.828125 75.320312 -82.5 75.96875 -80.125 C 76.625 -77.75 76.96875 -76.039062 77 -75 C 77.03125 -73.957031 77.046875 -73.335938 77.046875 -73.140625 C 77.046875 -71.515625 76.753906 -70.3125 76.171875 -69.53125 C 74.285156 -67.125 72.578125 -65.882812 71.046875 -65.8125 C 69.515625 -65.75 68.257812 -65.71875 67.28125 -65.71875 C 65.394531 -65.71875 63.148438 -65.785156 60.546875 -65.921875 C 60.285156 -65.921875 60.023438 -65.921875 59.765625 -65.921875 C 57.742188 -65.921875 55.335938 -65.691406 52.546875 -65.234375 C 52.546875 -62.503906 52.546875 -59.898438 52.546875 -57.421875 C 52.546875 -52.535156 52.507812 -48.269531 52.4375 -44.625 C 53.351562 -45.082031 54.265625 -45.507812 55.171875 -45.90625 C 63.054688 -49.476562 69.519531 -52.238281 74.5625 -54.1875 C 79.601562 -56.144531 82.125 -57.125 82.125 -57.125 C 82.125 -57.125 80.738281 -54.210938 77.96875 -48.390625 C 75.207031 -42.566406 73.015625 -37.472656 71.390625 -33.109375 C 70.472656 -30.628906 68.726562 -28.671875 66.15625 -27.234375 C 63.59375 -25.804688 60.535156 -24.164062 56.984375 -22.3125 C 53.429688 -20.457031 49.738281 -17.644531 45.90625 -13.875 C 42.0625 -9.894531 37.988281 -6.359375 33.6875 -3.265625 C 29.394531 -0.171875 26.0625 1.679688 23.6875 2.296875 C 21.3125 2.910156 19.664062 3.21875 18.75 3.21875 C 16.40625 3.21875 14.519531 2.34375 13.09375 0.59375 C 9.894531 -3.382812 6.328125 -7.128906 2.390625 -10.640625 C -1.546875 -14.160156 -3.515625 -15.921875 -3.515625 -15.921875 C -0.910156 -18.984375 1.140625 -20.96875 2.640625 -21.875 C 4.140625 -22.789062 5.78125 -23.410156 7.5625 -23.734375 C 9.351562 -24.054688 11.976562 -24.835938 15.4375 -26.078125 C 18.75 -27.242188 23.566406 -29.554688 29.890625 -33.015625 C 29.171875 -37.242188 28.679688 -42.15625 28.421875 -47.75 C 28.359375 -49.769531 28.328125 -51.890625 28.328125 -54.109375 C 28.328125 -55.210938 28.328125 -56.316406 28.328125 -57.421875 C 25.265625 -56.054688 22.039062 -54.492188 18.65625 -52.734375 C 18.070312 -52.472656 17.453125 -52.34375 16.796875 -52.34375 C 15.296875 -52.34375 13.601562 -53.269531 11.71875 -55.125 C 9.832031 -56.976562 7.941406 -59.628906 6.046875 -63.078125 C 4.160156 -66.535156 2.613281 -69.679688 1.40625 -72.515625 C 0.207031 -75.347656 -0.390625 -76.765625 -0.390625 -76.765625 C -0.390625 -76.765625 1.984375 -77.203125 6.734375 -78.078125 C 11.492188 -78.953125 17.191406 -80.238281 23.828125 -81.9375 C 25.523438 -82.394531 27.1875 -82.847656 28.8125 -83.296875 C 28.675781 -90.140625 28.382812 -97.597656 27.9375 -105.671875 C 26.957031 -120.898438 26.46875 -128.515625 26.46875 -128.515625 Z M 109.96875 -67.484375 C 114.0625 -68.585938 118.550781 -69.300781 123.4375 -69.625 C 124.476562 -69.757812 125.519531 -69.828125 126.5625 -69.828125 C 128.78125 -69.828125 131.09375 -69.515625 133.5 -68.890625 C 135.90625 -68.273438 138.019531 -67.445312 139.84375 -66.40625 C 140.625 -65.882812 141.242188 -65.394531 141.703125 -64.9375 C 139.679688 -75.164062 137.988281 -85.191406 136.625 -95.015625 C 136.488281 -95.796875 136.390625 -96.578125 136.328125 -97.359375 C 126.492188 -95.609375 117.21875 -93.722656 108.5 -91.703125 C 108.625 -90.859375 108.785156 -89.945312 108.984375 -88.96875 C 109.640625 -83.820312 109.96875 -77.832031 109.96875 -71 C 109.96875 -69.820312 109.96875 -68.648438 109.96875 -67.484375 Z M 109.96875 -67.484375 "/></g></g></g></svg>